<?xml version="1.0" encoding="UTF-8" standalone="no"?>
<!-- Created with Inkscape (http://www.inkscape.org/) -->

<svg
   width="75.972183mm"
   height="76mm"
   viewBox="0 0 75.972183 76"
   version="1.1"
   id="svg678"
   inkscape:version="1.1.2 (0a00cf5339, 2022-02-04)"
   sodipodi:docname="dop.svg"
   xmlns:inkscape="http://www.inkscape.org/namespaces/inkscape"
   xmlns:sodipodi="http://sodipodi.sourceforge.net/DTD/sodipodi-0.dtd"
   xmlns="http://www.w3.org/2000/svg"
   xmlns:svg="http://www.w3.org/2000/svg">
  <sodipodi:namedview
     id="namedview680"
     pagecolor="#ffffff"
     bordercolor="#666666"
     borderopacity="1.0"
     inkscape:pageshadow="2"
     inkscape:pageopacity="0.0"
     inkscape:pagecheckerboard="0"
     inkscape:document-units="mm"
     showgrid="false"
     fit-margin-top="0"
     fit-margin-left="0"
     fit-margin-right="0"
     fit-margin-bottom="0"
     inkscape:zoom="0.85146512"
     inkscape:cx="238.41258"
     inkscape:cy="209.05143"
     inkscape:current-layer="layer1" />
  <defs
     id="defs675" />
  <g
     inkscape:label="Layer 1"
     inkscape:groupmode="layer"
     id="layer1">
    <path
       id="polygon9972"
       style="fill:#e73811;stroke-width:0.407309"
       class="st0"
       d="m 60.321865,7.255303 -0.22239,4.864667 4.75346,-1.000732 -0.97292,4.781273 4.83687,-0.250183 -1.72348,4.558889 4.83687,0.528163 -2.39064,4.225312 4.69787,1.278712 -3.05778,3.808339 4.44769,2.001463 -3.61374,3.280176 4.05851,2.668616 -4.05851,2.668618 3.61374,3.280177 -4.44769,2.001462 3.05778,3.780541 -4.72566,1.278712 2.41843,4.225312 -4.83687,0.555961 1.72348,4.531091 -4.86467,-0.222385 1.00072,4.753475 -4.75346,-0.972934 0.22239,4.864664 -4.55889,-1.723482 -0.52817,4.836876 -4.22531,-2.418443 -1.27872,4.697879 -3.80833,-3.057789 -2.00146,4.447687 -3.28017,-3.613741 L 38.000005,76 l -2.69642,-4.086321 -3.25239,3.613741 -2.02925,-4.447687 -3.78054,3.057789 -1.2787,-4.697879 -4.225332,2.418443 -0.52815,-4.864674 -4.558909,1.75128 0.222388,-4.892462 -4.753463,1.000732 0.972926,-4.753475 -4.83687,0.222385 L 8.978789,55.762983 4.14192,55.23482 6.560347,51.009508 1.862474,49.730796 4.892473,45.922457 0.472561,43.948793 4.058514,40.668616 0,37.999998 4.058514,35.303582 0.472561,32.051206 4.892473,30.049743 1.862474,26.241404 6.560347,24.962692 4.14192,20.73738 8.978789,20.209217 7.255295,15.650328 l 4.864672,0.250183 -1.000728,-4.781273 4.78128,1.000732 -0.250205,-4.864667 4.558909,1.723483 0.52815,-4.836871 4.253112,2.418437 1.25092,-4.69788 3.80834,3.029993 2.00145,-4.419897 3.28019,3.585955 L 38.000005,0 l 2.66859,4.058523 3.28019,-3.585955 2.00145,4.447695 3.78054,-3.057791 1.27872,4.69788 4.22531,-2.418437 0.52817,4.836871 z" />
    <path
       class="st1"
       d="m 37.999985,4.753473 c 18.34675,0 33.24653,14.871982 33.24653,33.246525 0,18.346744 -14.87198,33.246527 -33.24653,33.246527 -18.346731,0 -33.246523,-14.871983 -33.246523,-33.246527 0,-18.374543 14.87199,-33.246525 33.246523,-33.246525"
       id="path9974"
       style="fill:#ffe400;stroke-width:0.407309" />
    <path
       class="st0"
       d="m 15.344536,37.9722 c 0,-12.509144 10.118519,-22.62765 22.627659,-22.62765 12.50913,0 22.62766,10.118506 22.62766,22.62765 0,12.481346 -10.11851,22.627651 -22.62766,22.627651 -12.48134,0 -22.627659,-10.118507 -22.627659,-22.627651"
       id="path9976"
       style="fill:#e73811;stroke-width:0.407309" />
    <path
       class="st1"
       d="m 57.097275,27.43672 -1.72347,1.250916 0.63934,2.001462 -1.75128,-1.250915 -1.75128,1.250915 0.66717,-2.001462 -1.75127,-1.250916 h 2.16823 l 0.66715,-2.001463 0.69497,2.001463 z m -9.11776,-6.56035 -0.69493,-2.001464 -0.66718,2.001464 h -2.16824 l 1.75126,1.223117 -0.66714,2.001464 1.7513,-1.250914 1.75124,1.250914 -0.63934,-2.001464 1.72348,-1.250914 z m -9.42357,-2.613019 -0.69493,-2.001466 -0.66717,2.001466 h -2.16826 l 1.75128,1.250913 -0.66714,2.001463 1.75129,-1.250914 1.75126,1.250914 -0.63935,-2.001463 1.72348,-1.250913 z m -9.31236,2.613019 -0.69494,-2.001464 -0.66715,2.001464 h -2.16826 l 1.75128,1.250914 -0.66714,2.001462 1.75127,-1.250914 1.75127,1.250914 -0.63936,-2.001462 1.7235,-1.250914 z m -6.977304,6.56035 -0.694963,-2.001463 -0.667147,2.001463 h -2.168253 l 1.751266,1.250916 -0.667147,2.001462 1.751281,-1.250915 1.75128,1.250915 -0.639359,-2.001462 1.723476,-1.250916 z m -2.585225,9.951721 -0.694963,-2.001462 -0.667147,2.001462 h -2.168252 l 1.75128,1.250915 -0.667162,2.001462 1.751281,-1.250915 1.75128,1.250915 -0.63936,-2.001462 1.723478,-1.250915 z m 2.974396,9.089976 -0.69495,-2.001462 -0.667161,2.001462 h -2.168252 l 1.751279,1.250914 -0.667145,2.001462 1.751279,-1.250914 1.751266,1.250914 -0.63936,-2.001462 1.723497,-1.250914 z m 6.198963,6.560351 -0.69495,-2.001462 -0.66715,2.001462 h -2.16824 l 1.75128,1.250915 -0.66717,2.001464 1.75128,-1.250916 1.75129,1.250916 -0.63937,-2.001464 1.72348,-1.250915 z m 9.70153,3.391368 -0.69494,-2.001463 -0.66716,2.001463 h -2.16826 l 1.75128,1.250916 -0.66714,2.001463 1.75128,-1.250914 1.75127,1.250914 -0.63935,-2.001463 1.72348,-1.250916 z m 9.70154,-3.391368 -0.69496,-2.001462 -0.66715,2.001462 h -2.16825 l 1.75128,1.250915 -0.66717,2.001464 1.75129,-1.250916 1.75128,1.250916 -0.63934,-2.001464 1.72348,-1.250915 z m 6.19898,-6.560351 -0.69495,-2.001462 -0.66716,2.001462 h -2.16825 l 1.75126,1.250914 -0.66715,2.001462 1.7513,-1.250914 1.75127,1.250914 -0.63934,-2.001462 1.72348,-1.250914 z m 3.19679,-9.117775 -0.69497,-2.001464 -0.66714,2.001464 h -2.16826 l 1.75128,1.250913 -0.66716,2.001462 1.75128,-1.250913 1.75128,1.250913 -0.63935,-2.001462 1.72346,-1.250913 z"
       id="path9978"
       style="fill:#ffe400;stroke-width:0.407309" />
    <path
       class="st0"
       d="m 22.96123,60.516459 c 0.02786,0.250181 0,0.472566 -0.139011,0.667154 -0.139011,0.194586 -0.333581,0.333575 -0.555953,0.361373 -0.250189,0.0278 -0.472577,0 -0.667161,-0.138996 -0.194601,-0.138995 -0.333581,-0.333576 -0.361384,-0.555961 -0.05557,-0.250183 0,-0.444768 0.139011,-0.667153 0.139011,-0.194588 0.333581,-0.333578 0.58377,-0.361376 0.250175,-0.0278 0.472562,0 0.667147,0.138996 0.166783,0.138997 0.305779,0.333578 0.333581,0.555964 m -3.280174,-3.836138 -2.307248,2.140455 -0.194601,0.08339 -0.222371,-0.166789 c -0.38917,-0.41697 -0.583756,-0.833942 -0.611557,-1.278712 -0.02786,-0.500365 0.166783,-0.972934 0.639359,-1.417702 0.52815,-0.472566 1.056317,-0.639355 1.584482,-0.500367 0.333581,0.111193 0.694965,0.333579 1.02853,0.667156 l 0.166783,0.250181 z m 1.167511,0.528164 -1.167511,-1.250916 c -0.305778,-0.333576 -0.639359,-0.583759 -0.917351,-0.72275 -0.166783,-0.08339 -0.333581,-0.138996 -0.555952,-0.194587 -0.305779,-0.05559 -0.611557,-0.0278 -0.917336,0.05559 -0.277992,0.08341 -0.555969,0.250183 -0.778355,0.472569 -0.63936,0.583758 -0.83393,1.250914 -0.583756,1.973663 0.139011,0.416972 0.38917,0.833945 0.77834,1.223118 l 1.139723,1.223116 0.08328,-0.08341 c -0.139012,-0.166789 -0.222387,-0.305778 -0.222387,-0.416973 0,-0.08339 0.08328,-0.222382 0.250189,-0.361373 l 2.00147,-1.862472 c 0.166783,-0.166789 0.305778,-0.222385 0.38917,-0.222385 0.08328,0 0.222387,0.08339 0.38917,0.250182 z m -3.16898,-3.419167 -1.834672,-2.807609 -1.028545,0.333579 0.08328,0.138996 c 0.389169,-0.05559 0.667146,-0.0278 0.833945,0.08339 0.194584,0.111193 0.389169,0.361376 0.639358,0.694951 0.222388,0.33358 0.333566,0.528167 0.333566,0.611559 l -0.111147,0.222388 -1.27872,0.833941 -0.528165,-0.806145 c -0.139011,-0.222385 -0.222388,-0.389174 -0.194585,-0.472566 0.02786,-0.111194 0.139011,-0.250182 0.305778,-0.416973 l -0.08328,-0.111193 -1.195312,0.778346 0.08328,0.111193 c 0.222387,-0.08339 0.38917,-0.138996 0.500363,-0.111193 0.111148,0.0278 0.222388,0.138996 0.361384,0.361374 l 0.528151,0.806146 -1.167511,0.750548 -0.139011,0.05559 -0.139011,-0.111193 -0.472562,-0.694951 c -0.1946,-0.305779 -0.277991,-0.528163 -0.277991,-0.667153 0,-0.138996 0.111147,-0.305778 0.333581,-0.472567 l -0.08344,-0.138996 -0.722751,0.500367 1.806869,2.75201 0.08344,-0.05559 c -0.111148,-0.194587 -0.166798,-0.361375 -0.139011,-0.444769 0.02786,-0.08341 0.139011,-0.194586 0.305779,-0.30578 l 2.307233,-1.501096 c 0.194601,-0.138996 0.333581,-0.166789 0.416987,-0.138996 0.08328,0.0278 0.19457,0.138996 0.333581,0.305778 z m -2.223858,-3.307973 -0.611542,-1.334309 -0.111147,0.05559 c 0.05557,0.222384 0.08328,0.361375 0.05557,0.44477 -0.05557,0.138996 -0.250174,0.277979 -0.555953,0.389173 l -2.196055,0.972933 1.973668,-3.891734 -0.02786,-0.111194 -2.974379,1.33431 c -0.277992,0.138995 -0.50038,0.166789 -0.611573,0.138995 -0.111147,-0.0278 -0.222372,-0.166788 -0.361368,-0.361376 l -0.111147,0.05559 0.583755,1.33431 0.111148,-0.05559 c -0.08328,-0.222385 -0.111148,-0.361375 -0.05557,-0.444768 0.05557,-0.138996 0.250173,-0.277982 0.555952,-0.416973 l 1.890276,-0.833942 -1.75128,3.391367 0.416973,0.972934 0.111147,-0.05559 -0.08344,-0.277982 c 0,-0.05559 0.02786,-0.166788 0.08344,-0.305779 l 0.05557,-0.111193 2.501834,-1.111925 c 0.305778,-0.138995 0.500362,-0.194588 0.611557,-0.16679 0.111147,0.0278 0.222386,0.16679 0.361382,0.389174 z m -2.752007,-5.337235 c -0.250174,0.333576 -0.667147,0.555962 -1.306506,0.722749 -0.639359,0.166791 -1.139723,0.138996 -1.501091,-0.0278 -0.361383,-0.166788 -0.58377,-0.444769 -0.667162,-0.806143 -0.08328,-0.361376 -0.02786,-0.694953 0.222388,-1.028531 0.222387,-0.333577 0.667162,-0.58376 1.334307,-0.72275 0.639345,-0.166789 1.139724,-0.166789 1.501092,0.0278 0.361382,0.166789 0.583755,0.44477 0.667161,0.806144 0.05557,0.361377 0,0.694952 -0.250189,1.028531 m -2.8354,1.16752 c 0.500364,0.305777 1.056318,0.389174 1.695676,0.222383 0.611558,-0.138995 1.056333,-0.472564 1.362111,-0.945133 0.277992,-0.472569 0.361368,-0.972935 0.222387,-1.556694 -0.139011,-0.528162 -0.416972,-0.917339 -0.861746,-1.223118 -0.500364,-0.305777 -1.056332,-0.389172 -1.723478,-0.222384 -0.63936,0.16679 -1.111921,0.500367 -1.389898,0.972933 -0.25019,0.444771 -0.333581,0.945138 -0.1946,1.501098 0.166798,0.583762 0.444774,0.972935 0.889548,1.250915 m 2.613028,-4.753475 -0.05557,-1.445501 h -0.111147 c -0.02786,0.222385 -0.05557,0.361374 -0.139012,0.444769 -0.08328,0.111194 -0.305779,0.166788 -0.667161,0.166788 l -2.474031,0.08339 3.335777,-1.667884 v -0.08339 l -3.585956,-1.473297 2.77981,-0.08339 c 0.250175,0 0.44476,0.0278 0.500364,0.08339 0.08328,0.05559 0.139011,0.222382 0.139011,0.472567 h 0.111148 l -0.02786,-1.779078 h -0.111148 c -0.02786,0.222383 -0.05557,0.389173 -0.111147,0.44477 -0.05557,0.05559 -0.194586,0.111194 -0.444775,0.111194 l -2.752007,0.08339 c -0.222372,0 -0.361368,-0.0278 -0.444774,-0.08339 C 8.367302,36.776894 8.311723,36.610098 8.28386,36.387713 H 8.172712 l 0.02786,1.223117 3.168981,1.250913 -3.057787,1.528897 0.05557,1.223116 h 0.111147 c 0,-0.250184 0.02786,-0.416971 0.111148,-0.500367 0.05557,-0.08339 0.222387,-0.111193 0.416972,-0.111193 l 2.501834,-0.08339 c 0.333581,0 0.528165,0.0278 0.639359,0.08339 0.08328,0.08339 0.139011,0.222383 0.194584,0.500366 z m -0.05557,-5.726407 0.222387,-1.806876 -0.111147,-0.0278 c -0.05557,0.250183 -0.111147,0.416972 -0.166783,0.472569 -0.05557,0.05559 -0.222387,0.08339 -0.444774,0.05559 L 9.201254,34.19165 C 8.978866,34.16385 8.839886,34.10826 8.784281,34.024864 8.728711,33.941454 8.701001,33.774679 8.728711,33.524497 H 8.617563 l -0.222372,1.806877 h 0.111147 c 0.02787,-0.250183 0.111148,-0.416974 0.166768,-0.472569 0.05557,-0.05559 0.222388,-0.08339 0.444774,-0.05559 l 2.724222,0.333579 c 0.250173,0.0278 0.389169,0.08339 0.416972,0.166787 0.05557,0.08339 0.05557,0.250184 0.05557,0.500366 z m 0.194601,-2.223849 0.38917,-1.389905 -0.111148,-0.0278 c -0.08344,0.222386 -0.166798,0.333578 -0.25019,0.389175 -0.111147,0.05559 -0.361382,0.05559 -0.667145,-0.0278 l -2.335051,-0.611559 4.002924,-1.779076 0.02786,-0.111194 -3.141178,-0.833943 c -0.305778,-0.08339 -0.500379,-0.166787 -0.58377,-0.277981 -0.05557,-0.111194 -0.08328,-0.27798 -0.05557,-0.500365 l -0.111147,-0.0278 -0.361384,1.389905 0.111147,0.0278 c 0.08344,-0.222386 0.166783,-0.333579 0.250191,-0.389177 0.139011,-0.05559 0.361368,-0.05559 0.667146,0.0278 l 2.001455,0.528163 -3.502546,1.528898 -0.277976,1.028527 0.111147,0.0278 0.111148,-0.250183 0.250174,-0.166789 0.111147,-0.05559 2.640829,0.694952 c 0.305763,0.08339 0.500349,0.166788 0.583756,0.250183 0.05557,0.08339 0.08328,0.277983 0.02786,0.528164 z m 0.333565,-6.337965 -1.250916,-1.362108 1.834687,0.08341 z m 1.417699,0.694952 -0.111147,-0.05559 c -0.08328,0.138996 -0.139011,0.222385 -0.166798,0.250183 l -0.250174,0.0278 -0.166798,-0.138996 c -0.05557,-0.05559 -0.25019,-0.250183 -0.555969,-0.58376 l 0.694965,-1.473299 0.639359,0.0278 0.250174,0.0278 0.166783,0.0278 0.139011,0.138996 c 0,0.05559 -0.02786,0.166786 -0.111147,0.333576 l 0.111147,0.05559 0.667162,-1.417704 -0.111147,-0.05559 -0.222388,0.222386 c -0.08328,0.0278 -0.250173,0.05559 -0.500363,0.0278 l -3.836142,-0.08339 -0.05557,0.111194 2.223858,2.446232 c 0.333565,0.361375 0.528166,0.611558 0.583754,0.722751 0.05557,0.111194 0.05557,0.250182 0,0.389173 l 0.08344,0.05559 z m 1.501107,-3.085589 2.001455,-2.863203 -0.806143,-0.750548 -0.08328,0.111193 c 0.194585,0.222386 0.305779,0.416972 0.333566,0.555963 0.05557,0.222385 -0.02786,0.500364 -0.250174,0.806144 l -0.889549,1.306511 -1.584482,-4.392098 -0.05557,-0.0278 -1.890277,2.668619 0.806143,0.722752 0.08328,-0.138997 c -0.194585,-0.194586 -0.305779,-0.361373 -0.333581,-0.500364 -0.05557,-0.222386 0,-0.472568 0.222387,-0.778346 l 0.806142,-1.167523 1.556695,4.392102 z m 2.362837,-3.224579 1.223116,-1.362107 -0.08328,-0.08339 c -0.194585,0.166786 -0.333565,0.277979 -0.416971,0.277979 -0.111149,0 -0.222388,-0.05559 -0.416973,-0.222384 L 16.484417,18.43014 c -0.166783,-0.138996 -0.250174,-0.277981 -0.250174,-0.361375 0,-0.111194 0.08328,-0.250184 0.250174,-0.44477 l -0.08328,-0.08339 -1.223114,1.362107 0.08328,0.08339 c 0.166782,-0.166789 0.305794,-0.27798 0.416972,-0.27798 0.08328,0 0.222387,0.05559 0.389169,0.222383 l 2.029257,1.834676 c 0.194601,0.166787 0.277992,0.277979 0.250206,0.389173 0,0.08339 -0.08344,0.250182 -0.250206,0.44477 z m 1.918064,-2.946599 c -0.38917,-0.08339 -0.806143,-0.361374 -1.223115,-0.86174 -0.416972,-0.500365 -0.639359,-0.945136 -0.639359,-1.362108 0,-0.389172 0.139011,-0.722752 0.416972,-0.972933 0.277992,-0.222385 0.611572,-0.305779 1.000727,-0.250183 0.389185,0.05559 0.806158,0.361374 1.22313,0.861741 0.444774,0.500367 0.63936,0.972935 0.63936,1.362107 0,0.389173 -0.139011,0.722752 -0.416972,0.945134 -0.25019,0.277982 -0.583771,0.361376 -1.000743,0.277982 m -2.279446,-2.029263 c -0.05557,0.583761 0.139011,1.111926 0.555967,1.612291 0.416972,0.47257 0.889549,0.75055 1.445503,0.806146 0.555967,0.05559 1.056331,-0.111193 1.501105,-0.472568 0.416957,-0.361374 0.667147,-0.778346 0.722752,-1.30651 0.08328,-0.583761 -0.111148,-1.111924 -0.528166,-1.640088 -0.416972,-0.500367 -0.917351,-0.778347 -1.501106,-0.806146 -0.528167,-0.0278 -1.000728,0.111193 -1.4177,0.472569 -0.472577,0.389174 -0.722751,0.833942 -0.778355,1.334306 m 5.337247,0.277985 1.250891,-0.75055 -0.0556,-0.111194 c -0.194593,0.08339 -0.333574,0.138996 -0.444768,0.111194 -0.139011,-0.0278 -0.305779,-0.194588 -0.47256,-0.500365 l -1.250917,-2.057059 4.086315,1.501096 0.0833,-0.05559 -1.66789,-2.779811 c -0.1668,-0.277981 -0.25019,-0.472568 -0.22239,-0.583761 0.0279,-0.111193 0.11115,-0.250181 0.30578,-0.389172 l -0.0556,-0.111194 -1.250915,0.750549 0.05557,0.111193 c 0.194586,-0.111193 0.361368,-0.138996 0.444775,-0.111193 0.139011,0.0278 0.30578,0.194585 0.47256,0.500365 l 1.05634,1.779078 -3.58596,-1.334308 -0.917335,0.555961 0.05557,0.08339 0.277991,-0.111194 c 0.05557,-0.0278 0.166783,0 0.305779,0.05559 l 0.139011,0.0278 1.4177,2.335038 c 0.166783,0.277983 0.25019,0.472569 0.222387,0.583763 0,0.111193 -0.111148,0.250183 -0.333581,0.389172 z m 4.086311,-2.307242 3.11337,-1.195319 -0.11115,-1.084128 -0.16677,0.05559 c -0.0279,0.389172 -0.11115,0.667155 -0.25018,0.806145 -0.16679,0.166791 -0.41697,0.305779 -0.83394,0.472569 -0.36138,0.138996 -0.58377,0.222384 -0.66716,0.222384 l -0.19459,-0.166791 -0.55595,-1.445499 0.88954,-0.333577 c 0.25016,-0.08339 0.41696,-0.111194 0.50035,-0.05559 0.11115,0.05559 0.19459,0.166789 0.33359,0.389173 l 0.13901,-0.05559 -0.50038,-1.334308 -0.13902,0.05559 c 0.0279,0.250184 0.0556,0.416973 0,0.500367 -0.0556,0.111193 -0.19459,0.194586 -0.44476,0.277979 l -0.83395,0.333579 -0.50036,-1.306511 -0.0279,-0.166789 0.139,-0.111194 0.77836,-0.305779 c 0.33357,-0.138996 0.58376,-0.166787 0.69495,-0.138996 0.11114,0.0278 0.25018,0.166789 0.41697,0.416972 l 0.13901,-0.05559 -0.33358,-0.833942 -3.08559,1.167518 0.0279,0.111193 c 0.22239,-0.05559 0.38916,-0.08339 0.47257,-0.0278 0.0833,0.0278 0.16679,0.166786 0.25017,0.361373 l 1.00074,2.557425 c 0.0833,0.222386 0.11115,0.361376 0.0556,0.444771 -0.0279,0.08339 -0.16678,0.166788 -0.36137,0.27798 z m 6.47695,-2.474034 -0.38917,-3.113385 0.0556,-0.194588 c 0.0556,-0.0278 0.13901,-0.05559 0.27799,-0.08339 0.55596,-0.05559 1.02852,0 1.3899,0.250182 0.41699,0.277981 0.69495,0.722751 0.75055,1.362107 0.0835,0.694953 -0.11114,1.250916 -0.52817,1.584492 -0.27797,0.222385 -0.66714,0.361375 -1.13972,0.416972 -0.13901,0.0278 -0.25017,0.0278 -0.30576,0 z m -1.11193,0.639357 1.69569,-0.222382 c 0.44478,-0.05559 0.83394,-0.166791 1.13972,-0.30578 0.16679,-0.08339 0.33359,-0.194587 0.47258,-0.33358 0.22238,-0.222383 0.38918,-0.472566 0.47257,-0.778345 0.0833,-0.27798 0.11114,-0.58376 0.0833,-0.889539 -0.11114,-0.833943 -0.52816,-1.389903 -1.27872,-1.640087 -0.38914,-0.138996 -0.88952,-0.166789 -1.44548,-0.111194 l -1.64009,0.194587 v 0.111193 c 0.22239,0 0.38917,0 0.47257,0.05559 0.0833,0.05559 0.11114,0.194586 0.13901,0.41697 l 0.33358,2.724213 c 0.0279,0.222385 0.0279,0.389174 -0.0556,0.444771 -0.0556,0.05559 -0.19459,0.111193 -0.41696,0.166788 z m 5.80982,-3.474761 c 0.13901,-0.166789 0.22238,-0.361376 0.22238,-0.58376 0,-0.166789 -0.0279,-0.277981 -0.13901,-0.389173 -0.0835,-0.111194 -0.1946,-0.166789 -0.33358,-0.166789 -0.13901,0 -0.22239,0.0278 -0.27798,0.111193 l -0.0833,0.222386 0.11115,0.250183 0.22239,0.08339 c 0.0279,0 0.0833,0 0.22238,-0.0278 l 0.0556,0.0278 0.0279,0.05559 -0.16679,0.361375 c -0.11115,0.111194 -0.22239,0.222385 -0.36136,0.277981 l 0.0556,0.111195 c 0.13901,-0.05559 0.30578,-0.166789 0.44476,-0.333575 m 2.27945,2.557423 c -0.19459,-0.333578 -0.27798,-0.833943 -0.16679,-1.473299 0.0833,-0.639356 0.27798,-1.111925 0.58375,-1.389904 0.30578,-0.277983 0.63937,-0.389174 1.00074,-0.333578 0.36138,0.05559 0.63935,0.250181 0.86174,0.583759 0.22239,0.333578 0.27799,0.833943 0.1946,1.501098 -0.0835,0.667153 -0.27798,1.111924 -0.58376,1.389905 -0.30578,0.250183 -0.63937,0.361376 -0.97293,0.30578 -0.41698,-0.05559 -0.69496,-0.250184 -0.91735,-0.583761 m -0.0279,-3.05779 c -0.47256,0.333576 -0.75055,0.833942 -0.83393,1.473298 -0.0833,0.639356 0.0279,1.16752 0.36137,1.612289 0.33358,0.444769 0.77834,0.694952 1.36211,0.778347 0.52817,0.08341 1.02854,-0.0278 1.4455,-0.333578 0.47256,-0.333576 0.75054,-0.83394 0.86174,-1.501096 0.0833,-0.667156 -0.0556,-1.195318 -0.38919,-1.667888 -0.33358,-0.416969 -0.77833,-0.667152 -1.33431,-0.750546 -0.55595,-0.05559 -1.05634,0.08339 -1.4733,0.389174 m 6.11559,2.696416 c -0.22239,0.0278 -0.52816,-0.0278 -0.94513,-0.166789 l 0.47258,-1.445502 0.11115,-0.138996 c 0.0556,0 0.13901,0 0.33356,0.05559 0.25019,0.08339 0.41698,0.166785 0.55596,0.277979 0.25018,0.222386 0.30579,0.500367 0.19459,0.833943 -0.13901,0.361376 -0.38916,0.555962 -0.72274,0.583762 m -2.72422,1.501096 1.64007,0.528164 0.0279,-0.111195 c -0.22238,-0.08339 -0.33357,-0.166789 -0.38916,-0.250183 -0.0556,-0.08339 -0.0279,-0.222386 0.0279,-0.444771 l 0.38916,-1.16752 0.33359,0.08339 0.80614,2.251644 0.94514,0.30578 0.0279,-0.111193 -0.25017,-0.166789 -0.1668,-0.277981 -0.72273,-1.890271 c 0.33356,0.05559 0.63933,0.0278 0.88953,-0.05559 0.25017,-0.08341 0.41697,-0.277982 0.50036,-0.583759 0.13901,-0.444772 0.0279,-0.806146 -0.36138,-1.111924 -0.19459,-0.166791 -0.47257,-0.305781 -0.80614,-0.416972 l -1.64009,-0.528165 -0.0279,0.111194 c 0.19458,0.08339 0.33358,0.166791 0.36138,0.250183 0.0556,0.08341 0.0279,0.222386 -0.0279,0.444771 l -0.83395,2.557427 c -0.0833,0.250181 -0.16678,0.389172 -0.25018,0.444768 -0.0835,0.05559 -0.2224,0.05559 -0.47258,0 z m 4.05852,1.417705 1.66789,0.778344 0.0556,-0.111193 c -0.22238,-0.138997 -0.36137,-0.222385 -0.38918,-0.305781 -0.0556,-0.08339 0,-0.222382 0.0833,-0.444768 l 1.16752,-2.501829 c 0.11115,-0.222382 0.19457,-0.333576 0.27798,-0.361375 0.11115,-0.0278 0.25017,0 0.50037,0.111193 l 0.0556,-0.111193 -1.66789,-0.778346 -0.0556,0.111193 c 0.2224,0.111193 0.36137,0.222383 0.38918,0.305779 0.0279,0.08339 0,0.250184 -0.0833,0.444768 l -1.16753,2.501829 c -0.11115,0.222385 -0.19458,0.333578 -0.27797,0.361377 -0.0833,0.0278 -0.25019,-0.0278 -0.50037,-0.111193 z m 6.69935,-0.917339 c -0.16679,-0.166789 -0.33358,-0.333577 -0.52817,-0.472568 -0.55596,-0.361375 -1.13972,-0.472567 -1.72348,-0.30578 -0.52817,0.138996 -0.94513,0.472569 -1.27872,0.945137 -0.36138,0.555961 -0.44476,1.111921 -0.27798,1.695683 0.16679,0.528163 0.50037,0.945136 1.00074,1.278712 0.27798,0.166789 0.58375,0.30578 0.94515,0.416973 0.36137,0.08339 0.55593,0.111194 0.61153,0.05559 l 0.66715,-1.028531 c 0.11115,-0.166787 0.22239,-0.250183 0.33359,-0.250183 0.0556,0 0.1668,0.0278 0.30578,0.111194 l 0.0556,-0.111194 -1.33431,-0.861742 -0.0556,0.08341 c 0.1946,0.13898 0.27798,0.25018 0.3058,0.333575 0.0279,0.08339 -0.0279,0.222385 -0.1668,0.416972 l -0.52816,0.83394 -0.13901,0.111195 c -0.0556,0 -0.13902,0 -0.30578,-0.05559 l -0.278,-0.111193 -0.22239,-0.138996 c -0.36136,-0.250182 -0.58375,-0.583759 -0.66714,-1.000732 -0.0833,-0.444768 0.0279,-0.889537 0.36137,-1.362106 0.38918,-0.583759 0.77835,-0.917335 1.19533,-1.000732 0.41695,-0.08339 0.77833,-0.0278 1.11192,0.194587 0.33358,0.222386 0.52817,0.500365 0.58376,0.833945 0.0279,0.194586 0.0279,0.444769 -0.0279,0.778346 l 0.11115,0.08339 0.66714,-1.111921 -0.11115,-0.08341 -0.1668,0.08341 -0.19457,-0.05559 c 0.0279,-0.0278 -0.0835,-0.111194 -0.25018,-0.305778 m -0.83395,4.475493 1.41771,1.167519 0.0556,-0.08339 c -0.19459,-0.194587 -0.27799,-0.305779 -0.30578,-0.389174 -0.0279,-0.08339 0.0556,-0.222385 0.19458,-0.41697 l 1.77907,-2.112656 c 0.13902,-0.166789 0.27798,-0.277981 0.36137,-0.277981 0.0833,0 0.25019,0.08341 0.44478,0.222384 l 0.0835,-0.08339 -1.38992,-1.167523 -0.0835,0.08341 c 0.19458,0.166785 0.27797,0.305777 0.30577,0.416969 0.0279,0.111193 -0.0556,0.222385 -0.19459,0.416972 l -1.77907,2.112656 c -0.16678,0.194586 -0.27796,0.277981 -0.36136,0.277981 -0.0833,0 -0.25019,-0.08341 -0.44477,-0.222385 z m 1.7235,1.389905 0.97292,1.084125 0.0833,-0.08339 c -0.13901,-0.194586 -0.19459,-0.305779 -0.19459,-0.416972 0,-0.138996 0.13902,-0.333577 0.38918,-0.555962 l 1.77908,-1.612291 -0.69494,4.308706 0.0833,0.08339 2.41842,-2.168253 c 0.2502,-0.222386 0.41698,-0.333576 0.52817,-0.333576 0.11115,0 0.27799,0.08339 0.44477,0.222384 l 0.0833,-0.08339 -0.97293,-1.084125 -0.0833,0.08339 c 0.13901,0.194587 0.19459,0.305781 0.19459,0.416973 0,0.138996 -0.13902,0.333578 -0.38918,0.55596 l -1.52889,1.389906 0.61156,-3.752743 -0.69495,-0.778349 -0.0833,0.08341 0.1668,0.250182 c 0.0279,0.05559 0.0279,0.166789 0,0.30578 l -0.0279,0.138996 -2.02926,1.834672 c -0.2502,0.222386 -0.41697,0.333576 -0.52817,0.333576 -0.11115,0 -0.27798,-0.08339 -0.44477,-0.250182 z m 3.05778,3.558157 1.77907,2.835404 1.02854,-0.305778 -0.0833,-0.138996 c -0.38917,0.05559 -0.66714,0.0278 -0.86173,-0.111194 -0.19459,-0.111194 -0.38917,-0.361375 -0.61156,-0.722749 -0.19459,-0.333578 -0.3336,-0.528165 -0.3336,-0.611559 l 0.11115,-0.222386 1.30651,-0.806143 0.50036,0.806143 c 0.13901,0.222386 0.19459,0.389176 0.1668,0.500367 -0.0279,0.111193 -0.13901,0.222386 -0.30578,0.389175 l 0.0833,0.138996 1.22313,-0.750549 -0.0835,-0.138997 c -0.22239,0.08339 -0.38917,0.138997 -0.50036,0.111195 -0.11115,-0.0278 -0.22239,-0.138996 -0.36137,-0.361374 l -0.50039,-0.806146 1.16754,-0.722751 0.13901,-0.05559 0.11115,0.111194 0.44476,0.722749 c 0.19459,0.305781 0.278,0.528164 0.278,0.667155 0,0.138996 -0.11115,0.277982 -0.33359,0.472569 l 0.0833,0.138996 0.75054,-0.500367 -1.75128,-2.77981 -0.0833,0.05559 c 0.11114,0.194587 0.13901,0.361376 0.11114,0.444771 -0.0279,0.08339 -0.11114,0.194587 -0.30578,0.305779 l -2.33503,1.473299 c -0.19458,0.111193 -0.33357,0.16679 -0.41697,0.138995 -0.0833,-0.0278 -0.19459,-0.138995 -0.33357,-0.30578 z m 7.00513,5.643014 c -0.0279,0.361374 -0.22239,0.583757 -0.58378,0.72275 -0.38917,0.138996 -0.69495,0.08339 -0.91733,-0.138996 -0.13901,-0.138995 -0.25017,-0.333576 -0.33357,-0.611555 l -0.0279,-0.08339 -0.0556,-0.222382 1.52889,-0.528167 h 0.1668 l 0.11115,0.222387 c 0.11114,0.250181 0.13901,0.472566 0.11114,0.639355 m -4.2253,-0.75055 0.55596,1.640089 0.11115,-0.0278 c -0.0556,-0.250182 -0.0835,-0.416971 -0.0556,-0.500366 0.0279,-0.08339 0.16679,-0.166789 0.38917,-0.250181 l 1.05632,-0.361377 0.0833,0.222386 0.0835,0.250183 c 0.13901,0.444768 0.36139,0.778346 0.63934,1.000732 0.27799,0.222382 0.61156,0.277979 1.02855,0.138996 0.30578,-0.111194 0.52814,-0.333577 0.63934,-0.667156 0.11115,-0.333577 0.0556,-0.750549 -0.11115,-1.223115 l -0.52814,-1.528896 -0.11115,0.0278 c 0.0556,0.222383 0.0556,0.361373 0,0.44477 -0.0279,0.08339 -0.1668,0.166787 -0.36139,0.222383 l -2.52963,0.861741 c -0.25018,0.08339 -0.41696,0.111194 -0.50037,0.08339 -0.0833,-0.0278 -0.16678,-0.166787 -0.27798,-0.361371 z m 3.83613,5.031458 c -0.11115,-0.166789 -0.22239,-0.472569 -0.30578,-0.917338 l 1.50109,-0.30578 0.19459,0.0278 c 0.0279,0.0278 0.0556,0.138995 0.11115,0.30578 0.0556,0.250181 0.0556,0.472567 0,0.639358 -0.0556,0.305777 -0.27798,0.500364 -0.63937,0.583759 -0.38916,0.08339 -0.66715,-0.0278 -0.86174,-0.333578 m -2.64081,-1.640088 0.33357,1.695684 0.11115,-0.0278 c -0.0279,-0.222386 -0.0279,-0.389173 0.0279,-0.472569 0.0556,-0.08339 0.19459,-0.138995 0.41698,-0.194586 l 1.19533,-0.222384 0.0833,0.333577 -1.58448,1.806876 0.19458,0.972934 0.11115,-0.0278 0.0279,-0.30578 0.16679,-0.27798 1.30652,-1.556694 c 0.11115,0.333576 0.27797,0.58376 0.47257,0.72275 0.19458,0.166789 0.44475,0.222385 0.75053,0.166789 0.44478,-0.08339 0.72276,-0.361376 0.80616,-0.833942 0.0556,-0.250183 0.0279,-0.555963 -0.0279,-0.889539 l -0.33358,-1.695685 -0.11115,0.0278 c 0.0279,0.222384 0,0.361376 -0.0556,0.44477 -0.0556,0.08341 -0.19458,0.138996 -0.38917,0.194586 l -2.64082,0.500367 c -0.25018,0.05559 -0.41698,0.05559 -0.50039,0 -0.0833,-0.05559 -0.13901,-0.166791 -0.22237,-0.416972 z m 1.4177,5.476225 c 0.30577,-0.250183 0.77833,-0.389173 1.4455,-0.416972 0.63935,0 1.13972,0.111193 1.4455,0.361376 0.30578,0.250183 0.47257,0.555961 0.47257,0.945135 0,0.361376 -0.139,0.667155 -0.44477,0.945134 -0.30579,0.277983 -0.77836,0.416973 -1.44551,0.416973 -0.66715,0 -1.13972,-0.111194 -1.47329,-0.361376 -0.30578,-0.250181 -0.47258,-0.555961 -0.47258,-0.917335 0.0279,-0.389177 0.1668,-0.722751 0.47258,-0.972935 m 3.03,-0.528162 c -0.41699,-0.416973 -0.94515,-0.611559 -1.6123,-0.583762 -0.63937,0 -1.13973,0.222386 -1.5289,0.611557 -0.38917,0.389174 -0.58375,0.861743 -0.55595,1.445502 0,0.555963 0.19457,1.000733 0.55595,1.389905 0.41697,0.416973 0.94514,0.611559 1.6123,0.611559 0.66714,0 1.19531,-0.222384 1.58449,-0.639357 0.36137,-0.389172 0.52816,-0.861741 0.52816,-1.417703 -0.0279,-0.555963 -0.22239,-1.028529 -0.58375,-1.417701 m -0.61158,4.531088 -0.0279,0.138997 c 0.30576,0.111193 0.50035,0.250181 0.58376,0.389174 0.0835,0.138995 0.0835,0.389173 0.0279,0.722749 l -0.0556,0.333576 -3.05779,-0.472566 c -0.25018,-0.0278 -0.41698,-0.111193 -0.47257,-0.166789 -0.0556,-0.08339 -0.0833,-0.250183 -0.0556,-0.500364 l -0.11115,-0.0278 -0.27798,1.779076 0.11115,0.0278 c 0.0556,-0.250183 0.11115,-0.416972 0.1946,-0.472568 0.0833,-0.05559 0.22238,-0.08339 0.47257,-0.0278 l 3.14118,0.500367 -0.0556,0.333576 c -0.0556,0.361376 -0.13901,0.583759 -0.25019,0.667156 -0.11115,0.08339 -0.33357,0.138996 -0.69495,0.166787 l -0.0279,0.138996 1.02854,0.138996 0.55595,-3.446966 z m -3.66935,3.419166 -1.02852,3.168985 0.91733,0.583758 0.0556,-0.166789 c -0.27797,-0.250181 -0.44476,-0.500365 -0.47257,-0.722749 -0.0279,-0.222385 0.0279,-0.528165 0.16679,-0.917337 0.11115,-0.361378 0.19458,-0.58376 0.25019,-0.639357 l 0.25018,-0.05559 1.4455,0.472567 -0.27797,0.917338 c -0.0833,0.250184 -0.1668,0.389173 -0.27798,0.444769 -0.0833,0.05559 -0.27799,0.05559 -0.50038,0.0278 l -0.0556,0.138996 1.36209,0.44477 0.0556,-0.138996 c -0.22238,-0.111194 -0.36137,-0.222386 -0.41698,-0.305781 -0.0556,-0.08339 -0.0279,-0.27798 0.0556,-0.528163 l 0.30577,-0.917336 1.30652,0.41697 0.13901,0.08339 v 0.166787 l -0.25019,0.806144 c -0.11114,0.333579 -0.22238,0.555964 -0.33357,0.639358 -0.11115,0.08339 -0.30577,0.08339 -0.58376,0.05559 l -0.0556,0.138996 0.86176,0.250181 1.02851,-3.141184 -0.11115,-0.0278 c -0.0833,0.222385 -0.16678,0.333577 -0.25018,0.389173 -0.0835,0.05559 -0.22238,0.0278 -0.44477,-0.0278 l -2.61301,-0.861743 c -0.22241,-0.08339 -0.36139,-0.13898 -0.38919,-0.222384 -0.0279,-0.08339 -0.0279,-0.222384 0.0279,-0.44477 z m 1.47331,5.11485 -0.0556,0.138997 c 0.27799,0.194587 0.41697,0.389172 0.44477,0.528162 0.0279,0.166791 -0.0279,0.389177 -0.16678,0.694954 l -0.13902,0.305778 -2.7798,-1.362106 c -0.25019,-0.111194 -0.36137,-0.222384 -0.41698,-0.305779 -0.0279,-0.08339 0,-0.250181 0.11115,-0.500366 l -0.11115,-0.05559 -0.80614,1.612291 0.11115,0.05559 c 0.13901,-0.222383 0.25018,-0.361373 0.30578,-0.389172 0.0835,-0.05559 0.25019,0 0.44477,0.08339 l 2.83541,1.389905 -0.13901,0.305778 c -0.16679,0.333577 -0.30579,0.500367 -0.44477,0.555963 -0.13901,0.05559 -0.38918,0.05559 -0.69497,-0.0278 l -0.0556,0.138996 0.97293,0.416972 1.52889,-3.141185 z m -2.08486,4.030724 -0.0833,0.111194 c 0.22237,0.250181 0.36137,0.444768 0.36137,0.611557 0,0.166788 -0.0833,0.389173 -0.278,0.667152 l -0.19457,0.277983 -2.50184,-1.806876 c -0.22237,-0.166789 -0.33357,-0.277981 -0.36137,-0.361376 -0.0279,-0.08339 0.0556,-0.250183 0.1946,-0.472565 l -0.0835,-0.05559 -1.05632,1.4733 0.0835,0.05559 c 0.1668,-0.194587 0.27798,-0.30578 0.38919,-0.333576 0.0833,-0.0278 0.22237,0.0278 0.41697,0.166789 l 2.5574,1.862471 -0.19457,0.27798 c -0.22239,0.277982 -0.38918,0.444771 -0.52816,0.472568 -0.13901,0.0278 -0.36138,-0.0278 -0.69496,-0.138996 l -0.0833,0.111195 0.86175,0.583759 2.05706,-2.835406 z m -4.1975,3.029993 0.72274,1.695684 -1.72348,-0.667154 z m -1.11195,-1.111924 0.0833,0.08339 0.25019,-0.166786 0.22239,0.05559 0.11114,0.166789 c 0.0279,0.08339 0.13902,0.333578 0.33359,0.722751 l -1.11193,1.167519 -0.61155,-0.222383 -0.22239,-0.111193 -0.13901,-0.08339 -0.0556,-0.166791 c 0.0279,-0.05559 0.0833,-0.138996 0.19459,-0.30578 l -0.0835,-0.08339 -1.08411,1.139722 0.0833,0.08339 0.30577,-0.138996 c 0.0835,0 0.25019,0.0278 0.47258,0.138996 l 3.58596,1.33431 0.0833,-0.08339 -1.3065,-3.05779 c -0.19459,-0.44477 -0.30579,-0.750549 -0.30579,-0.88954 -0.0279,-0.138995 0.0279,-0.250182 0.11115,-0.389173 l -0.0835,-0.08339 z"
       id="path9982"
       style="fill:#e73811;stroke-width:0.407309" />
    <path
       class="st0"
       d="m 54.122885,59.765909 c 0.25018,0.05559 0.44476,0.16679 0.58376,0.361376 0.13901,0.194585 0.19459,0.41697 0.13901,0.667153 -0.0556,0.250181 -0.16678,0.416972 -0.36135,0.555961 -0.19459,0.138997 -0.41698,0.194587 -0.66715,0.138997 -0.22239,-0.0278 -0.41697,-0.166786 -0.55597,-0.361374 -0.13901,-0.194585 -0.19458,-0.416972 -0.13901,-0.667156 0.0279,-0.250181 0.16679,-0.41697 0.36137,-0.55596 0.16678,-0.138996 0.38916,-0.194588 0.63936,-0.138996"
       id="path9984"
       style="fill:#e73811;stroke-width:0.407309" />
    <path
       id="path10107"
       style="fill:#ffe400;fill-opacity:1;stroke:none;stroke-width:0.615776;stroke-miterlimit:4;stroke-dasharray:none"
       d="m 32.962035,26.257053 c -0.0619,7.52e-4 -0.12239,0.0068 -0.17943,0.01858 -0.2765,0.05627 -2.49468,0.556581 -2.5704,0.579732 -0.11885,0.03633 -0.0468,0.36794 0.1213,0.559574 0.12578,0.14323 0.4215,0.301019 0.67727,0.361299 0.0978,0.02301 0.35712,0.06047 0.57634,0.08335 l 0.39849,0.04168 0.0488,0.262383 c 0.31684,1.703904 0.88601,4.458788 0.9453,4.57507 0.10591,0.207796 0.28987,0.340052 1.10551,0.795859 0.40391,0.225713 0.76287,0.430066 0.79744,0.454027 0.0558,0.03858 -0.0722,0.139319 -1.11901,0.881036 -0.6501,0.460583 -1.20049,0.848282 -1.22296,0.861571 -0.0225,0.01323 -1.02175,-0.244695 -2.22063,-0.573308 -2.08419,-0.571276 -2.19065,-0.596887 -2.42917,-0.580641 -0.4417,0.03008 -0.81186,0.309435 -0.9508,0.717326 -0.0527,0.154541 -0.4339,2.837299 -0.41153,2.895646 0.009,0.02489 0.0691,0.06107 0.13255,0.08037 h 2.1e-4 c 0.14163,0.04302 0.38031,0.02129 0.51179,-0.0467 0.054,-0.02789 0.19569,-0.155023 0.31472,-0.282299 0.16492,-0.17636 0.26725,-0.335171 0.43054,-0.667644 0.1633,-0.332487 0.22767,-0.432297 0.27055,-0.41946 0.0308,0.0092 0.2924,0.0816 0.5809,0.160732 0.28852,0.07914 1.24069,0.340548 2.11583,0.581099 1.55058,0.426214 1.59892,0.437156 1.89473,0.426092 l 0.3035,-0.0114 0.30831,-0.21224 c 0.16962,-0.116845 0.84053,-0.57925 1.49072,-1.027342 0.65018,-0.448083 1.19023,-0.806609 1.20005,-0.796777 0.009,0.0099 0.14855,0.314563 0.30853,0.677262 l 0.29093,0.659633 2.31358,0.0089 2.31357,0.0089 -0.0417,-0.07899 c -0.0624,-0.118245 -1.38188,-2.157614 -1.85604,-2.86863 -0.33457,-0.501709 -0.44598,-0.641938 -0.57977,-0.729241 -0.091,-0.05941 -1.00761,-0.57485 -2.03662,-1.145481 l -1.87091,-1.037645 -0.0277,-0.139903 c -0.0154,-0.07696 -0.21551,-1.089299 -0.4452,-2.249755 -0.22967,-1.160454 -0.44272,-2.162592 -0.47332,-2.227085 -0.0732,-0.153984 -0.30578,-0.389231 -0.46533,-0.470284 -0.16536,-0.08401 -0.36509,-0.12802 -0.55093,-0.125233 z m 2.81921,11.490782 2.1e-4,0.201487 c 2.8e-4,0.452793 0.26904,5.508827 0.50903,9.575532 0.0978,1.656951 0.1,1.667518 0.34449,1.916394 0.19514,0.198539 0.31599,0.247892 0.66766,0.273145 0.17311,0.01247 1.98276,0.02098 4.02152,0.01903 4.1526,-0.0038 3.81489,0.01767 4.12041,-0.263986 0.31449,-0.28997 0.27279,0.092 0.56696,-5.187997 0.14394,-2.582978 0.28461,-5.089451 0.31263,-5.570123 0.0346,-0.592353 0.0396,-0.885533 0.0154,-0.909653 -0.0237,-0.02369 -1.7891,-0.03858 -5.2969,-0.04467 z m 7.38658,1.472439 c 0.0548,7.53e-4 0.10822,0.02174 0.14425,0.06161 0.0531,0.05873 0.0579,0.398686 0.0579,4.174848 0,3.938158 -0.002,4.113434 -0.0641,4.168893 -0.0808,0.0731 -0.22891,0.07438 -0.30055,0.0022 -0.0493,-0.04934 -0.0551,-0.476105 -0.0551,-4.17484 0,-3.946881 0.002,-4.122359 0.0641,-4.17782 0.0422,-0.03821 0.0987,-0.05656 0.15363,-0.05542 z m -1.98467,2.26e-4 c 0.0511,4.9e-4 0.099,0.02098 0.13547,0.06136 0.0533,0.05882 0.0579,0.400264 0.0579,4.196607 0,4.049963 -0.002,4.133174 -0.0676,4.168658 -0.10053,0.05385 -0.23219,0.04407 -0.28655,-0.0215 -0.04,-0.04814 -0.0499,-0.747477 -0.0584,-4.171637 l -0.0108,-4.113726 0.0753,-0.06115 c 0.0487,-0.03957 0.10283,-0.05912 0.15379,-0.05859 z m -2.13482,7.53e-4 c 0.0488,-0.0038 0.0987,0.01323 0.15226,0.05085 l 0.0778,0.05453 v 4.123315 4.12333 l -0.0922,0.07258 c -0.0507,0.03993 -0.10175,0.07152 -0.11346,0.07032 -0.0747,-0.0077 -0.17971,-0.07407 -0.2115,-0.133469 -0.0257,-0.04814 -0.0373,-1.327165 -0.0373,-4.1412 v -4.07159 l 0.0808,-0.07602 c 0.0479,-0.0449 0.0952,-0.06905 0.14379,-0.07258 z m 7.58369,0.247965 c -0.14624,-0.01431 -0.23697,0.11164 -0.20211,0.280472 0.0624,0.302486 1.13855,4.86574 1.45021,6.149627 0.50803,2.092679 0.86141,3.44816 0.98079,3.76225 0.0399,0.104835 0.0821,0.107745 0.17737,0.01246 0.0881,-0.08812 0.10346,0.01063 -0.21583,-1.393687 -0.13316,-0.5855 -0.24193,-1.068375 -0.24193,-1.073129 0,-0.0046 0.0855,-0.03355 0.18998,-0.06386 0.3332,-0.0969 0.60608,-0.35905 0.68711,-0.660091 0.0325,-0.121061 0.0177,-0.233293 -0.10899,-0.825177 -0.28962,-1.35218 -0.8039,-3.33654 -0.92585,-3.572442 -0.11792,-0.228022 -0.51769,-0.379019 -0.83888,-0.316881 -0.14009,0.02714 -0.18263,0.02377 -0.21354,-0.01647 -0.0213,-0.0276 -0.1364,-0.42413 -0.2559,-0.881269 -0.38848,-1.485645 -0.35541,-1.38928 -0.48248,-1.401689 z" />
  </g>
</svg>
