<?xml version="1.0" encoding="UTF-8" standalone="no"?>
<!-- Created with Inkscape (http://www.inkscape.org/) -->

<svg
   width="60.142246mm"
   height="45.004105mm"
   viewBox="0 0 60.142246 45.004105"
   version="1.1"
   id="svg5"
   inkscape:version="1.2.1 (9c6d41e410, 2022-07-14, custom)"
   sodipodi:docname="mostly-recycled.svg"
   xmlns:inkscape="http://www.inkscape.org/namespaces/inkscape"
   xmlns:sodipodi="http://sodipodi.sourceforge.net/DTD/sodipodi-0.dtd"
   xmlns="http://www.w3.org/2000/svg"
   xmlns:svg="http://www.w3.org/2000/svg">
  <sodipodi:namedview
     id="namedview7"
     pagecolor="#505050"
     bordercolor="#eeeeee"
     borderopacity="1"
     inkscape:pageshadow="0"
     inkscape:pageopacity="0"
     inkscape:pagecheckerboard="0"
     inkscape:document-units="mm"
     showgrid="false"
     inkscape:zoom="0.67709621"
     inkscape:cx="120.36694"
     inkscape:cy="509.52877"
     inkscape:window-width="1680"
     inkscape:window-height="1006"
     inkscape:window-x="1366"
     inkscape:window-y="24"
     inkscape:window-maximized="1"
     inkscape:current-layer="layer1"
     inkscape:showpageshadow="2"
     inkscape:deskcolor="#505050" />
  <defs
     id="defs2">
    <clipPath
       clipPathUnits="userSpaceOnUse"
       id="clipPath17907">
      <path
         d="M 0,158.738 H 158.738 V 0 H 0 Z"
         id="path17905" />
    </clipPath>
    <filter
       style="color-interpolation-filters:sRGB"
       inkscape:label="Drop Shadow"
       id="filter37739"
       x="-0.066167444"
       y="-0.29489389"
       width="1.133131"
       height="1.7137749">
      <feFlood
         flood-opacity="0.831373"
         flood-color="rgb(0,0,0)"
         result="flood"
         id="feFlood37729" />
      <feComposite
         in="flood"
         in2="SourceGraphic"
         operator="in"
         result="composite1"
         id="feComposite37731" />
      <feGaussianBlur
         in="composite1"
         stdDeviation="1.00641"
         result="blur"
         id="feGaussianBlur37733" />
      <feOffset
         dx="0.0290608"
         dy="1.01554"
         result="offset"
         id="feOffset37735" />
      <feComposite
         in="SourceGraphic"
         in2="offset"
         operator="over"
         result="composite2"
         id="feComposite37737" />
    </filter>
    <filter
       style="color-interpolation-filters:sRGB"
       inkscape:label="Drop Shadow"
       id="filter37751"
       x="-0.066167444"
       y="-0.39745477"
       width="1.133131"
       height="1.9620181">
      <feFlood
         flood-opacity="0.831373"
         flood-color="rgb(0,0,0)"
         result="flood"
         id="feFlood37741" />
      <feComposite
         in="flood"
         in2="SourceGraphic"
         operator="in"
         result="composite1"
         id="feComposite37743" />
      <feGaussianBlur
         in="composite1"
         stdDeviation="1.00641"
         result="blur"
         id="feGaussianBlur37745" />
      <feOffset
         dx="0.0290608"
         dy="1.01554"
         result="offset"
         id="feOffset37747" />
      <feComposite
         in="SourceGraphic"
         in2="offset"
         operator="over"
         result="composite2"
         id="feComposite37749" />
    </filter>
  </defs>
  <g
     inkscape:label="Layer 1"
     inkscape:groupmode="layer"
     id="layer1"
     transform="translate(-8.1714621,-6.2838984)">
    <rect
       style="fill:#ffffff;stroke:none;stroke-width:1.6;stroke-linejoin:round"
       id="rect7219"
       width="60.142246"
       height="45.004105"
       x="8.1714621"
       y="6.2838984"
       inkscape:export-filename="/home/alex/rect7219.png"
       inkscape:export-xdpi="771.77002"
       inkscape:export-ydpi="771.77002" />
    <path
       id="path1689"
       style="fill:#000000;stroke-width:0.999999"
       d="m 26.272023,16.409495 c -0.21894,0.0055 -0.439211,0.05253 -0.618106,0.140055 -0.879703,0.430398 -1.105903,1.577008 -0.461558,2.338598 0.156375,0.18483 0.549985,0.402142 0.822586,0.454087 0.309848,0.05905 0.609077,0.01248 0.943968,-0.146901 0.341849,-0.162695 0.510711,-0.339844 0.687511,-0.721437 0.336748,-0.726807 -0.0099,-1.614764 -0.763452,-1.955159 -0.17425,-0.07871 -0.392007,-0.114708 -0.610949,-0.109243 z m 32.978466,0.578892 c -0.444265,0.188714 -14.310145,5.754623 -14.431521,5.792963 -0.639703,0.202083 -7.202219,1.89326 -7.23179,1.863658 -0.129427,-0.129547 -1.994707,-3.591344 -2.199167,-4.081498 -0.340969,-0.817417 -0.703196,-1.13905 -1.671316,-1.484577 -0.367277,-0.131084 -1.024833,-0.440303 -1.739165,-0.817606 -0.631705,-0.333662 -1.31545,-0.682684 -1.519435,-0.775591 -1.333225,-0.607235 -1.978778,-0.465604 -2.34171,0.513533 -0.0682,0.183989 -0.124183,0.432395 -0.124183,0.552126 2e-6,0.119731 -0.13141,0.908441 -0.292246,1.752548 l -0.292559,1.534685 -0.436034,0.918758 c -0.239911,0.505267 -0.430326,0.923376 -0.422965,0.929338 0.07479,0.06056 1.032477,0.357677 1.060368,0.328973 0.02041,-0.021 0.224866,-0.43313 0.454398,-0.915956 0.401284,-0.844108 0.423004,-0.907382 0.564576,-1.648597 0.175254,-0.917561 0.185145,-0.951675 0.238403,-0.819474 0.02149,0.05334 0.129884,0.472254 0.240894,0.930896 l 0.20199,0.83379 -0.205102,0.354182 c -0.225963,0.390689 -0.587036,0.908277 -0.882033,1.264225 l -0.191407,0.230935 0.122314,0.15686 c 0.06724,0.08625 0.217753,0.264045 0.334575,0.394954 l 0.212571,0.238093 0.633357,-0.820097 c 0.348493,-0.450953 0.756862,-0.97001 0.907242,-1.153426 0.334226,-0.407656 0.334315,-0.410105 0.12387,-1.69497 -0.08227,-0.502295 -0.137945,-0.924912 -0.12387,-0.938988 0.01407,-0.01407 0.563242,0.308797 1.220341,0.71739 l 1.19451,0.742911 -0.02739,0.196076 c -0.07335,0.522081 -0.18204,2.650177 -0.166508,3.260468 0.01484,0.583256 0.0064,0.691368 -0.05571,0.708365 -0.04033,0.01103 -0.968113,0.254614 -2.061602,0.541543 -1.09349,0.286928 -2.005188,0.537345 -2.02581,0.556172 -0.02062,0.01883 0.0092,0.235883 0.06598,0.48241 0.08112,0.352326 0.118508,0.44224 0.175224,0.420475 0.03968,-0.01523 0.124719,-0.04085 0.188918,-0.05696 l 0.116712,-0.02926 v 6.018296 6.017981 l 0.42421,0.003 c 0.284559,0.0018 0.390493,0.01674 0.321813,0.04451 -0.186349,0.0753 -0.309676,0.28641 -0.309676,0.530028 0,0.263704 0.09577,0.423686 0.309366,0.516646 0.191517,0.08337 0.194468,0.08322 0.392153,6.02e-4 0.415093,-0.173436 0.419948,-0.880508 0.0072,-1.047294 -0.05831,-0.02355 1.171467,-0.04276 2.855554,-0.04451 1.626899,-0.0018 5.036345,-0.01747 7.576634,-0.03517 l 4.618685,-0.0324 0.01214,-8.317056 0.01245,-8.317364 7.128149,-2.872361 c 3.920559,-1.579889 7.153133,-2.8907 7.183548,-2.912821 0.07274,-0.05293 -0.06871,-0.5648 -0.146902,-0.531584 z m -24.738595,6.102639 c 0.0187,-0.01869 1.321208,1.882171 1.361017,1.986284 0.01801,0.04708 -0.197487,0.120954 -0.812315,0.278241 -0.460316,0.11776 -0.864228,0.223822 -0.897594,0.235603 -0.03333,0.01178 -0.06069,-0.01555 -0.06069,-0.06038 0,-0.108545 0.387657,-2.417844 0.409581,-2.439749 z m -13.938842,1.420775 c -0.407095,6.62e-4 -0.489953,0.01608 -0.713343,0.133207 -0.361518,0.189551 -0.573527,0.392814 -0.718013,0.688134 -0.411278,0.840623 -0.01439,1.741569 0.913155,2.072806 0.184297,0.06581 0.34876,0.08523 0.615307,0.07252 0.448754,-0.02141 0.737158,-0.142099 1.060055,-0.444131 0.7669,-0.717344 0.549046,-1.931789 -0.429812,-2.396798 -0.229959,-0.109245 -0.330144,-0.126341 -0.727349,-0.125738 z m 4.182026,1.284766 c -0.01974,3.12e-4 -0.402028,0.271068 -0.849353,0.601612 -0.669278,0.494553 -0.892578,0.63135 -1.260801,0.773101 -0.246108,0.09474 -0.90256,0.346024 -1.459056,0.558349 -0.611818,0.233435 -1.081715,0.442297 -1.188284,0.528473 -0.09693,0.07838 -0.238522,0.260473 -0.314655,0.40429 -0.133346,0.251899 -0.137363,0.2792 -0.109243,0.746334 0.105229,1.747926 0.132507,4.166401 0.08248,7.322047 -0.02918,1.840263 -0.06514,3.546997 -0.07999,3.792675 l -0.02708,0.446933 0.451286,0.01584 c 0.248237,0.0089 0.61959,0.0206 0.825077,0.02614 l 0.373479,0.0099 0.02365,-0.157488 c 0.01301,-0.08668 0.04732,-1.106847 0.07594,-2.267014 0.107108,-4.342174 0.100074,-4.207922 0.212882,-4.237421 0.05491,-0.01433 0.103411,-0.0215 0.107686,-0.0159 0.0043,0.0054 0.03382,0.610462 0.06536,1.343901 0.06206,1.443493 0.217359,3.903703 0.295048,4.672219 0.02657,0.262861 0.04824,0.51935 0.04824,0.569863 0,0.08655 0.04779,0.09182 0.824454,0.09182 0.757099,0 0.824452,-0.0069 0.824452,-0.0859 0,-0.459087 -0.616559,-7.024123 -0.727349,-7.745011 -0.07791,-0.506927 -0.195535,-1.391055 -0.261435,-1.964471 -0.151503,-1.318262 -0.16006,-1.406145 -0.135698,-1.406145 0.01102,0 0.345968,0.05523 0.744157,0.122625 0.581781,0.09846 0.761027,0.112545 0.913153,0.07158 0.16144,-0.04347 0.357505,-0.233396 1.331451,-1.290057 0.628148,-0.681494 1.142238,-1.253741 1.142222,-1.271695 -3.3e-5,-0.04114 -0.611848,-0.590407 -0.657633,-0.590407 -0.01861,0 -0.482901,0.376526 -1.031734,0.836592 -0.548833,0.460067 -1.049418,0.877172 -1.112344,0.92716 -0.111174,0.08835 -0.129688,0.08864 -0.656699,0.005 -0.29829,-0.04736 -0.580523,-0.09986 -0.627133,-0.116402 -0.05781,-0.02051 0.108156,-0.113086 0.522247,-0.291312 0.505127,-0.21741 0.686416,-0.326004 1.079042,-0.647674 0.2595,-0.212604 0.59569,-0.506929 0.747268,-0.65421 l 0.275759,-0.267968 -0.215685,-0.428878 c -0.118503,-0.235896 -0.231424,-0.428793 -0.251161,-0.428501 z m 19.625364,14.207434 c -0.256574,0 -0.531274,0.307141 -0.531274,0.594147 0,0.152151 0.18601,0.429292 0.340799,0.507618 0.156994,0.07944 0.218456,0.07741 0.411761,-0.01433 0.174049,-0.08259 0.314344,-0.317692 0.314344,-0.527228 0,-0.283652 -0.264338,-0.560221 -0.53563,-0.560221 z" />
    <path
       style="fill:#000000;stroke-width:0.999999"
       d="m 26.612176,21.770899 c 0.02213,0.04327 0.01516,0.06586 -0.03521,0.114123 -0.05417,0.0519 -0.06052,0.07219 -0.04787,0.153117 0.0053,0.03376 0.01474,0.101706 0.02102,0.150991 0.0063,0.04928 0.0158,0.09821 0.02112,0.108715 0.0064,0.01261 0.02734,0.02829 0.06171,0.04611 0.06616,0.03433 0.07995,0.05193 0.07744,0.09873 -0.004,0.07452 -0.07238,0.24874 -0.124473,0.317325 -0.03331,0.04384 -0.05627,0.05199 -0.100105,0.03547 -0.01571,-0.0059 -0.04242,-0.01364 -0.05936,-0.01713 -0.0396,-0.0082 -0.06907,0.0086 -0.217118,0.124112 l -0.112192,0.08753 0.0029,0.06177 c 0.004,0.0846 -0.0033,0.111071 -0.03476,0.127701 -0.03485,0.0184 -0.170091,0.04829 -0.245821,0.05434 -0.07349,0.0059 -0.15402,-0.0048 -0.167695,-0.02216 -0.0052,-0.0066 -0.01625,-0.04063 -0.02458,-0.07562 -0.0083,-0.03499 -0.01896,-0.06845 -0.02361,-0.07435 -0.0046,-0.0059 -0.03883,-0.0205 -0.07593,-0.03244 -0.0371,-0.01194 -0.09458,-0.03402 -0.127727,-0.04906 -0.117288,-0.05325 -0.132755,-0.05399 -0.203991,-0.0099 -0.02769,0.01715 -0.05744,0.03101 -0.06613,0.03078 -0.02657,-6.62e-4 -0.05801,-0.02281 -0.117426,-0.08261 -0.09493,-0.09555 -0.169896,-0.230883 -0.151835,-0.274082 0.004,-0.0097 0.02745,-0.03613 0.052,-0.05875 0.05477,-0.05046 0.05725,-0.06094 0.03758,-0.158761 -0.0081,-0.04023 -0.01713,-0.102293 -0.02007,-0.137913 -0.0085,-0.10291 -0.01351,-0.111688 -0.08305,-0.146232 -0.03231,-0.01604 -0.0635,-0.03523 -0.06932,-0.04262 -0.01291,-0.01642 -0.0032,-0.09559 0.02084,-0.169945 0.02146,-0.06635 0.08284,-0.19421 0.105837,-0.220491 0.02552,-0.02916 0.06092,-0.03185 0.126495,-0.0096 l 0.05803,0.01968 0.147207,-0.115764 0.147205,-0.115763 -0.0031,-0.04485 c -0.0017,-0.02467 -0.0014,-0.06137 6.62e-4,-0.08157 0.0034,-0.03299 0.0066,-0.03839 0.03163,-0.05314 0.06173,-0.03642 0.281572,-0.06865 0.367682,-0.05389 0.04933,0.0084 0.05299,0.01337 0.07481,0.100564 0.0073,0.02925 0.01766,0.05871 0.02296,0.06545 0.0053,0.0067 0.04954,0.02655 0.09832,0.04401 0.04878,0.01746 0.113499,0.04336 0.143826,0.05755 0.07582,0.03546 0.08901,0.03517 0.149323,-0.0034 0.04182,-0.02672 0.05661,-0.03208 0.08751,-0.03165 l 0.03719,5.06e-4 0.102078,0.127943 c 0.05615,0.07036 0.108323,0.140199 0.115983,0.155156 z m -0.573655,0.132055 c -0.09439,-0.08985 -0.251527,-0.130154 -0.392969,-0.100803 -0.07769,0.01612 -0.119222,0.03877 -0.206282,0.112465 -0.06981,0.05911 -0.07706,0.06744 -0.09986,0.115017 -0.06286,0.131162 -0.06645,0.29536 -0.0089,0.405878 0.02541,0.04878 0.08563,0.125361 0.126762,0.161218 0.09299,0.08106 0.247049,0.116475 0.382915,0.08802 l 0.0759,-0.0159 0.09931,-0.0781 0.09931,-0.0781 0.02972,-0.06226 c 0.04153,-0.08702 0.05723,-0.215304 0.0376,-0.307131 -0.01838,-0.08596 -0.06714,-0.167588 -0.143535,-0.240306 z m 2.661424,3.132651 c 0.01541,0.03814 0.0063,0.07472 -0.03052,0.122009 -0.04544,0.05842 -0.06707,0.104978 -0.06174,0.132845 0.0024,0.01282 0.01493,0.04307 0.02772,0.06723 0.02523,0.04763 0.0778,0.193307 0.09724,0.269445 0.0067,0.02609 0.01627,0.05273 0.02135,0.05919 0.01624,0.02065 0.05846,0.03971 0.104934,0.04738 0.05507,0.0091 0.09175,0.02529 0.110099,0.04862 0.02152,0.02737 0.02465,0.09866 0.0096,0.219625 -0.02162,0.17434 -0.0611,0.3017 -0.103974,0.335416 -0.03108,0.02444 -0.04737,0.02684 -0.135188,0.01987 -0.101677,-0.0081 -0.09603,-0.01151 -0.195137,0.119306 -0.03196,0.04218 -0.08237,0.100703 -0.112019,0.13005 -0.02966,0.02935 -0.06174,0.06781 -0.0713,0.08548 -0.01616,0.02986 -0.01597,0.03821 0.0028,0.118893 0.01107,0.04773 0.01839,0.09637 0.01628,0.108083 -0.0083,0.04616 -0.07309,0.08758 -0.236912,0.15148 -0.14107,0.05502 -0.26921,0.0753 -0.314641,0.04978 -0.02305,-0.01295 -0.02206,-0.01119 -0.0668,-0.116999 -0.0096,-0.02262 -0.02544,-0.04778 -0.03527,-0.05591 -0.01071,-0.0089 -0.05885,-0.02092 -0.120115,-0.03013 -0.05623,-0.0084 -0.155241,-0.02635 -0.22001,-0.03978 -0.07028,-0.01458 -0.124923,-0.02123 -0.135525,-0.01648 -0.0098,0.0044 -0.04145,0.03347 -0.07037,0.0647 -0.04784,0.05161 -0.05518,0.05734 -0.08094,0.06319 -0.01558,0.0036 -0.04303,0.0019 -0.06101,-0.0038 -0.105501,-0.03311 -0.365905,-0.26964 -0.383852,-0.348664 -0.0081,-0.03558 0.009,-0.08076 0.0449,-0.118704 0.0283,-0.02992 0.04435,-0.07026 0.04313,-0.10839 -4.26e-4,-0.01337 -0.01739,-0.06511 -0.0377,-0.114981 -0.0203,-0.04987 -0.04685,-0.1263 -0.059,-0.169841 -0.03704,-0.132782 -0.04892,-0.14564 -0.161388,-0.174636 -0.0859,-0.02215 -0.09838,-0.03194 -0.108929,-0.08546 -0.02385,-0.121012 0.02945,-0.409446 0.09131,-0.494032 0.03032,-0.04147 0.05169,-0.04794 0.132318,-0.04009 0.03914,0.0038 0.07967,0.0053 0.09009,0.0033 0.02881,-0.0055 0.05548,-0.02993 0.103554,-0.09493 0.02408,-0.03256 0.07235,-0.09078 0.107249,-0.129388 0.113987,-0.126074 0.122245,-0.145685 0.09556,-0.226887 -0.03169,-0.0964 -0.02754,-0.125551 0.02354,-0.165724 0.09996,-0.07861 0.398117,-0.176726 0.483268,-0.159031 0.0365,0.0076 0.05349,0.02787 0.08217,0.09809 0.02642,0.06467 0.04369,0.08735 0.0742,0.09748 0.01292,0.0043 0.08127,0.01781 0.151885,0.03007 0.07061,0.01225 0.157635,0.02843 0.193382,0.03595 0.0867,0.01824 0.09769,0.0157 0.150198,-0.03475 0.0762,-0.0732 0.09834,-0.08715 0.132967,-0.08376 0.06299,0.0062 0.182108,0.08584 0.304956,0.203968 0.06991,0.06723 0.09343,0.09584 0.107597,0.130943 z m -0.661287,0.329625 c -0.280474,-0.210905 -0.699536,-0.12615 -0.873075,0.176578 -0.04377,0.07636 -0.06305,0.137688 -0.07562,0.240573 -0.0093,0.07616 -0.009,0.115625 0.0014,0.169697 0.02101,0.109431 0.04087,0.149045 0.133882,0.267116 0.07571,0.0961 0.0827,0.103157 0.13082,0.131348 0.153631,0.09007 0.3275,0.114433 0.489738,0.06861 0.132123,-0.03732 0.281439,-0.153467 0.35004,-0.272291 0.08066,-0.139704 0.101362,-0.328086 0.05302,-0.48255 -0.03334,-0.106534 -0.122106,-0.232831 -0.210212,-0.299083 z m -1.589257,-1.511714 c 0.03216,0.0606 0.03889,0.108542 0.01973,0.140427 -0.006,0.01 -0.04622,0.04944 -0.08945,0.08778 -0.0755,0.06697 -0.07876,0.07096 -0.0831,0.101665 -0.0025,0.01758 0.0019,0.04972 0.0098,0.07144 0.0079,0.02172 0.02546,0.08106 0.03912,0.131888 0.03927,0.146134 0.0458,0.161823 0.07209,0.173179 0.01218,0.0052 0.06434,0.01674 0.115928,0.02551 0.130984,0.02227 0.145316,0.03294 0.161782,0.120555 0.01365,0.07263 -0.01674,0.333021 -0.04605,0.39448 -0.02093,0.04391 -0.05193,0.07478 -0.08518,0.08482 -0.01026,0.0031 -0.0602,0.0028 -0.110993,-7.83e-4 -0.0508,-0.0036 -0.102296,-0.0046 -0.114454,-0.0025 -0.02579,0.0046 -0.03163,0.01256 -0.09643,0.132104 -0.02269,0.04185 -0.05703,0.10084 -0.07632,0.13108 -0.0456,0.07149 -0.0434,0.08326 0.03788,0.202297 0.03682,0.05397 0.06084,0.09573 0.06228,0.108401 0.0033,0.02893 -0.0294,0.09204 -0.07081,0.136718 -0.08061,0.08698 -0.259713,0.208453 -0.32612,0.221147 -0.03765,0.0072 -0.07117,-0.0153 -0.153205,-0.102909 -0.03991,-0.04262 -0.08015,-0.08069 -0.08943,-0.0846 -0.01839,-0.0078 -0.04933,-0.0013 -0.190488,0.04018 -0.19626,0.05756 -0.177902,0.04994 -0.190602,0.07913 -0.0062,0.01426 -0.01821,0.06546 -0.02669,0.113788 -0.01727,0.09849 -0.03242,0.132983 -0.06616,0.150591 -0.07107,0.03709 -0.349584,0.01407 -0.461837,-0.03817 -0.04127,-0.01921 -0.0692,-0.05345 -0.07325,-0.0898 -0.0017,-0.01513 -9.63e-4,-0.06053 0.0016,-0.10091 0.0025,-0.04038 0.0034,-0.0889 0.002,-0.107839 l -0.0026,-0.03443 -0.05508,-0.02982 c -0.0303,-0.0164 -0.08318,-0.04584 -0.117519,-0.06544 -0.109778,-0.06263 -0.135311,-0.07429 -0.164751,-0.07527 -0.0325,-0.0011 -0.04255,0.004 -0.149507,0.07588 -0.08785,0.05902 -0.105108,0.06183 -0.162103,0.02639 -0.07252,-0.04509 -0.26618,-0.303499 -0.274873,-0.366776 -0.0074,-0.05357 0.0028,-0.07023 0.08871,-0.145392 0.04332,-0.03793 0.08226,-0.0769 0.08651,-0.08665 0.01246,-0.02858 0.0091,-0.06505 -0.01256,-0.134784 -0.01116,-0.036 -0.03119,-0.107897 -0.04451,-0.159787 -0.02059,-0.08018 -0.02686,-0.0955 -0.0418,-0.102048 -0.0097,-0.0042 -0.05934,-0.01507 -0.110381,-0.02406 -0.05104,-0.009 -0.103584,-0.02117 -0.11677,-0.02705 -0.06439,-0.02872 -0.07958,-0.09659 -0.06233,-0.278384 0.01186,-0.124928 0.04063,-0.230862 0.07264,-0.267431 0.02623,-0.02996 0.05872,-0.03615 0.163581,-0.03115 0.04988,0.0024 0.101895,0.0022 0.115582,-4.41e-4 0.02954,-0.0057 0.03735,-0.01548 0.08826,-0.110963 0.01994,-0.03739 0.04983,-0.09063 0.06642,-0.118322 0.01659,-0.02769 0.03632,-0.06534 0.04383,-0.08368 l 0.01365,-0.03333 -0.06404,-0.0954 c -0.08844,-0.131756 -0.09137,-0.162382 -0.02332,-0.243813 0.04898,-0.05861 0.189528,-0.16877 0.260488,-0.204148 0.107102,-0.05343 0.143792,-0.04819 0.205316,0.02927 0.05888,0.07415 0.107993,0.117669 0.136164,0.120687 0.01394,0.0015 0.06693,-0.01 0.117756,-0.02553 0.05082,-0.01553 0.125214,-0.03729 0.165306,-0.04834 0.06971,-0.01922 0.0734,-0.02116 0.08461,-0.0445 0.0064,-0.01342 0.01809,-0.06332 0.02586,-0.110888 0.0078,-0.04757 0.01935,-0.09794 0.02572,-0.111936 0.02846,-0.06252 0.104414,-0.07416 0.31439,-0.04818 0.1436,0.01777 0.195996,0.03359 0.237455,0.07172 0.02596,0.02387 0.03103,0.05388 0.02422,0.143514 -0.0091,0.119243 -0.007,0.14444 0.01324,0.160081 0.01552,0.012 0.103694,0.06224 0.258384,0.147204 0.07138,0.0392 0.08442,0.03671 0.185877,-0.03553 0.09459,-0.06735 0.120475,-0.077 0.162219,-0.06047 0.06427,0.02545 0.212248,0.192379 0.274403,0.309531 z m -0.972123,0.289273 c -0.156226,-0.102313 -0.356864,-0.139466 -0.544901,-0.100901 -0.216785,0.04447 -0.405892,0.208811 -0.493246,0.428669 -0.04516,0.113655 -0.05307,0.303435 -0.01804,0.432979 0.04277,0.158189 0.174712,0.328478 0.317728,0.410052 0.130153,0.07425 0.296166,0.105876 0.449073,0.08555 0.121256,-0.01612 0.277621,-0.08909 0.361168,-0.168549 0.137485,-0.13075 0.20819,-0.275424 0.224146,-0.458642 0.0084,-0.09608 4.25e-4,-0.171794 -0.0276,-0.263108 -0.0315,-0.102617 -0.05394,-0.143172 -0.131255,-0.23719 -0.06332,-0.07703 -0.07582,-0.08876 -0.137061,-0.128867 z"
       id="path2245" />
    <text
       xml:space="preserve"
       style="font-style:normal;font-variant:normal;font-weight:normal;font-stretch:normal;font-size:6.37401px;line-height:1;font-family:Impact;-inkscape-font-specification:'Impact, Normal';font-variant-ligatures:normal;font-variant-caps:normal;font-variant-numeric:normal;font-variant-east-asian:normal;letter-spacing:0px;word-spacing:0px;stroke-width:0.264583"
       x="16.885904"
       y="12.91985"
       id="text3381"><tspan
         sodipodi:role="line"
         id="tspan3379"
         style="font-style:normal;font-variant:normal;font-weight:normal;font-stretch:normal;font-size:6.37401px;font-family:Impact;-inkscape-font-specification:'Impact, Normal';font-variant-ligatures:normal;font-variant-caps:normal;font-variant-numeric:normal;font-variant-east-asian:normal;stroke-width:0.264583"
         x="16.885904"
         y="12.91985">Mostly Recycled</tspan></text>
    <text
       xml:space="preserve"
       style="font-style:normal;font-variant:normal;font-weight:normal;font-stretch:normal;font-size:6.37401px;line-height:1;font-family:Impact;-inkscape-font-specification:'Impact, Normal';font-variant-ligatures:normal;font-variant-caps:normal;font-variant-numeric:normal;font-variant-east-asian:normal;letter-spacing:0px;word-spacing:0px;stroke-width:0.264583"
       x="17.455458"
       y="48.487659"
       id="text4815"><tspan
         sodipodi:role="line"
         id="tspan4813"
         style="font-style:normal;font-variant:normal;font-weight:normal;font-stretch:normal;font-size:6.37401px;font-family:Impact;-inkscape-font-specification:'Impact, Normal';font-variant-ligatures:normal;font-variant-caps:normal;font-variant-numeric:normal;font-variant-east-asian:normal;stroke-width:0.264583"
         x="17.455458"
         y="48.487659">Entirely Sborato</tspan></text>
  </g>
  <style
     type="text/css"
     id="style9970">
	.st0{fill:#E73811;}
	.st1{fill:#FFE400;}
	.st2{fill:#004998;}
</style>
</svg>
