<?xml version="1.0" encoding="UTF-8" standalone="no"?>
<!-- Created with Inkscape (http://www.inkscape.org/) -->

<svg
   width="70mm"
   height="70mm"
   viewBox="0 0 70 70"
   version="1.1"
   id="svg4092"
   inkscape:version="1.1.2 (0a00cf5339, 2022-02-04)"
   sodipodi:docname="recycled-dumpster-material.svg"
   xmlns:inkscape="http://www.inkscape.org/namespaces/inkscape"
   xmlns:sodipodi="http://sodipodi.sourceforge.net/DTD/sodipodi-0.dtd"
   xmlns="http://www.w3.org/2000/svg"
   xmlns:svg="http://www.w3.org/2000/svg">
  <sodipodi:namedview
     id="namedview4094"
     pagecolor="#ffffff"
     bordercolor="#666666"
     borderopacity="1.0"
     inkscape:pageshadow="2"
     inkscape:pageopacity="0.0"
     inkscape:pagecheckerboard="0"
     inkscape:document-units="mm"
     showgrid="false"
     fit-margin-top="0"
     fit-margin-left="0"
     fit-margin-right="0"
     fit-margin-bottom="0"
     inkscape:zoom="1.8155994"
     inkscape:cx="101.89473"
     inkscape:cy="129.98462"
     inkscape:current-layer="text14678" />
  <defs
     id="defs4089" />
  <g
     inkscape:label="Layer 1"
     inkscape:groupmode="layer"
     id="layer1">
    <rect
       style="fill:#ffe400;fill-opacity:1;stroke:#000000;stroke-width:1.52315;stroke-linejoin:round;stroke-miterlimit:4;stroke-dasharray:none"
       id="rect13146"
       width="48.42049"
       height="48.42049"
       x="25.28723"
       y="-24.210245"
       transform="rotate(45)" />
    <path
       style="fill:#000000;stroke-width:1.17165"
       d="m 35.941561,61.111399 c -0.401853,-0.515691 -0.744925,-0.974897 -0.762417,-1.020439 -0.03796,-0.09889 1.438894,-2.020233 1.552743,-2.020233 0.05003,0 0.09326,0.133452 0.117903,0.362662 0.02144,0.199474 0.04956,0.372199 0.06257,0.383845 0.013,0.01172 1.010432,0.0012 2.21646,-0.02132 1.206017,-0.02343 2.21386,-0.02554 2.239636,-0.0047 0.05683,0.04569 -1.172331,2.254469 -1.316186,2.365343 -0.07487,0.05765 -0.500612,0.07827 -1.616751,0.07827 h -1.515134 l -0.03913,0.195783 c -0.02144,0.107792 -0.03902,0.290933 -0.03902,0.407231 0,0.136228 -0.03023,0.211448 -0.08494,0.211448 -0.04663,0 -0.413758,-0.421947 -0.815611,-0.937626 z m -5.209012,0.09853 c -0.231472,-0.100762 -0.577976,-0.484794 -0.632083,-0.700366 -0.0819,-0.326411 0.01617,-0.739207 0.285473,-1.201471 l 0.264629,-0.454214 h 1.836073 c 1.571829,0 1.841239,0.01347 1.87203,0.09373 0.0198,0.05144 0.01839,0.601292 -0.0023,1.221682 l -0.03913,1.127984 -1.697373,-0.0012 c -1.260638,-0.0012 -1.74603,-0.02367 -1.886476,-0.08483 z M 29.24577,59.59814 c -0.550431,-0.873186 -1.132929,-1.959717 -1.132929,-2.113203 0,-0.102754 0.286492,-0.656676 0.730923,-1.413317 0.402006,-0.684397 0.730912,-1.267563 0.730912,-1.295871 0,-0.02835 -0.128308,-0.126632 -0.285016,-0.218548 -0.505474,-0.296217 -0.408438,-0.349246 0.974873,-0.53268 0.671555,-0.08893 1.239033,-0.152748 1.261095,-0.141523 0.08752,0.04464 0.941868,2.283479 0.906472,2.375735 -0.03245,0.08448 -0.08623,0.07252 -0.374764,-0.08366 l -0.336874,-0.182462 -0.990268,1.692838 c -0.544642,0.931042 -1.0227,1.787215 -1.062372,1.902564 -0.129175,0.375784 -0.190698,0.377283 -0.422052,0.01055 z m 10.618013,-1.386416 c -0.200833,-0.247429 -1.772381,-3.019089 -1.756447,-3.097789 0.02835,-0.140446 1.940736,-1.233339 2.044017,-1.168149 0.126129,0.07956 1.632299,2.711941 1.706043,2.981597 0.124581,0.455304 -0.155315,1.054217 -0.588674,1.259842 -0.270194,0.12819 -1.306098,0.146281 -1.404939,0.02437 z m -2.395138,-4.561955 c -0.637472,-0.09889 -1.180181,-0.180622 -1.206028,-0.181759 -0.02589,-9.61e-4 -0.04698,-0.0519 -0.04698,-0.113064 0,-0.06702 0.112127,-0.172221 0.282907,-0.265497 0.181758,-0.09924 0.271015,-0.185566 0.249632,-0.241266 -0.0983,-0.256264 -1.94923,-3.448841 -2.081557,-3.590447 -0.08588,-0.09197 -0.137399,-0.197692 -0.11447,-0.234951 0.02788,-0.04511 0.488344,-0.06772 1.379585,-0.06772 h 1.337733 l 0.147593,0.175431 c 0.0812,0.09643 0.454426,0.714357 0.829425,1.37306 l 0.681772,1.197628 0.291589,-0.16279 c 0.167675,-0.09373 0.33576,-0.145847 0.395538,-0.122906 0.09022,0.03456 0.05542,0.157751 -0.264536,0.935505 -0.549247,1.335004 -0.620249,1.491396 -0.674051,1.484612 -0.02695,-0.0035 -0.570782,-0.08705 -1.208242,-0.185882 z m -5.36046,-0.391824 C 31.692589,53.010527 31.247619,52.745077 31.11937,52.668041 l -0.233171,-0.140082 0.105215,-0.2045 c 0.361806,-0.703706 1.563054,-2.676066 1.715708,-2.817086 0.332046,-0.306704 0.886531,-0.366013 1.321073,-0.141302 0.157693,0.08155 0.373476,0.377835 0.682417,0.93703 l 0.138466,0.250605 -0.907105,1.566252 c -0.498901,0.861446 -0.945558,1.571338 -0.992577,1.577536 -0.0471,0.0047 -0.425544,-0.191155 -0.841152,-0.438549 z"
       id="path17882" />
    <g
       aria-label="100%
recycled
DUMPSTER
material"
       id="text14678"
       style="font-size:8.48309px;line-height:1;letter-spacing:0px;word-spacing:0px;stroke-width:0.309999">
      <path
         d="m 28.793765,15.129282 h -1.017971 v -0.627748 q 0.49202,-0.03393 0.814377,-0.212078 0.330841,-0.178144 0.475053,-0.44112 h 0.627749 v 5.938163 h -0.899208 z"
         style="font-family:Bebas;-inkscape-font-specification:'Bebas, Normal';text-align:center;text-anchor:middle"
         id="path4160" />
      <path
         d="m 32.008852,19.87133 q -0.644715,0 -1.04342,-0.390222 -0.398705,-0.398705 -0.398705,-1.04342 v -3.240541 q 0,-0.644715 0.398705,-1.034937 0.398705,-0.398705 1.04342,-0.398705 0.644715,0 1.04342,0.398705 0.398706,0.390222 0.398706,1.034937 v 3.240541 q 0,0.644715 -0.398706,1.04342 -0.398705,0.390222 -1.04342,0.390222 z m 0,-0.848309 q 0.254493,0 0.398706,-0.152696 0.144212,-0.152695 0.144212,-0.432637 v -3.240541 q 0,-0.279942 -0.144212,-0.432637 -0.144213,-0.152696 -0.398706,-0.152696 -0.254492,0 -0.398705,0.152696 -0.144213,0.152695 -0.144213,0.432637 v 3.240541 q 0,0.279942 0.144213,0.432637 0.144213,0.152696 0.398705,0.152696 z"
         style="font-family:Bebas;-inkscape-font-specification:'Bebas, Normal';text-align:center;text-anchor:middle"
         id="path4162" />
      <path
         d="m 35.690513,19.87133 q -0.644714,0 -1.04342,-0.390222 -0.398705,-0.398705 -0.398705,-1.04342 v -3.240541 q 0,-0.644715 0.398705,-1.034937 0.398706,-0.398705 1.04342,-0.398705 0.644715,0 1.043421,0.398705 0.398705,0.390222 0.398705,1.034937 v 3.240541 q 0,0.644715 -0.398705,1.04342 -0.398706,0.390222 -1.043421,0.390222 z m 0,-0.848309 q 0.254493,0 0.398706,-0.152696 0.144212,-0.152695 0.144212,-0.432637 v -3.240541 q 0,-0.279942 -0.144212,-0.432637 -0.144213,-0.152696 -0.398706,-0.152696 -0.254492,0 -0.398705,0.152696 -0.144212,0.152695 -0.144212,0.432637 v 3.240541 q 0,0.279942 0.144212,0.432637 0.144213,0.152696 0.398705,0.152696 z"
         style="font-family:Bebas;-inkscape-font-specification:'Bebas, Normal';text-align:center;text-anchor:middle"
         id="path4164" />
      <path
         d="m 38.820774,17.148258 q -0.441121,0 -0.670164,-0.24601 -0.229043,-0.246009 -0.229043,-0.704096 v -1.484541 q 0,-0.458087 0.229043,-0.704097 0.229043,-0.246009 0.670164,-0.246009 0.441121,0 0.670164,0.246009 0.229044,0.24601 0.229044,0.704097 v 1.484541 q 0,0.458087 -0.229044,0.704096 -0.229043,0.24601 -0.670164,0.24601 z m 2.281951,-3.299922 h 0.593817 l -2.46858,5.938163 h -0.593816 z m -2.281951,2.765487 q 0.305391,0 0.305391,-0.373256 v -1.569371 q 0,-0.373256 -0.305391,-0.373256 -0.305391,0 -0.305391,0.373256 v 1.569371 q 0,0.373256 0.305391,0.373256 z m 2.68914,3.257507 q -0.441121,0 -0.670164,-0.24601 -0.229044,-0.246009 -0.229044,-0.704096 v -1.484541 q 0,-0.458087 0.229044,-0.704097 0.229043,-0.246009 0.670164,-0.246009 0.44112,0 0.670164,0.246009 0.229043,0.24601 0.229043,0.704097 v 1.484541 q 0,0.458087 -0.229043,0.704096 -0.229044,0.24601 -0.670164,0.24601 z m 0,-0.534435 q 0.305391,0 0.305391,-0.373256 v -1.569371 q 0,-0.373256 -0.305391,-0.373256 -0.305391,0 -0.305391,0.373256 v 1.569371 q 0,0.373256 0.305391,0.373256 z"
         style="font-family:Bebas;-inkscape-font-specification:'Bebas, Normal';text-align:center;text-anchor:middle"
         id="path4166" />
      <path
         d="m 23.822673,28.680664 -0.653198,-2.451613 h -0.46657 v 2.451613 h -0.899208 v -5.938163 h 1.408193 q 0.644715,0 1.026454,0.390222 0.381739,0.381739 0.381739,1.026454 v 0.653198 q 0,0.407188 -0.161178,0.721063 -0.161179,0.313874 -0.458087,0.492019 l 0.754995,2.655207 z m -1.119768,-3.299922 h 0.46657 q 0.262976,0 0.407188,-0.144212 0.144213,-0.144213 0.144213,-0.407189 v -0.68713 q 0,-0.262976 -0.144213,-0.407188 -0.144212,-0.144213 -0.407188,-0.144213 h -0.46657 z"
         style="font-family:Bebas;-inkscape-font-specification:'Bebas, Normal';text-align:center;text-anchor:middle"
         id="path4168" />
      <path
         d="m 25.493837,22.742501 h 2.55341 v 0.848309 h -1.654202 v 1.654203 h 1.314879 v 0.848309 h -1.314879 v 1.739033 h 1.654202 v 0.848309 h -2.55341 z"
         style="font-family:Bebas;-inkscape-font-specification:'Bebas, Normal';text-align:center;text-anchor:middle"
         id="path4170" />
      <path
         d="m 30.134082,28.765495 q -0.627748,0 -1.01797,-0.390222 -0.390223,-0.390222 -0.390223,-1.017971 v -3.291439 q 0,-0.627749 0.390223,-1.017971 0.390222,-0.390222 1.01797,-0.390222 0.627749,0 1.017971,0.390222 0.390222,0.390222 0.390222,1.017971 v 0.695614 h -0.882241 v -0.695614 q 0,-0.254493 -0.144212,-0.407188 -0.144213,-0.152696 -0.373256,-0.152696 -0.229044,0 -0.373256,0.152696 -0.144213,0.152695 -0.144213,0.407188 v 3.291439 q 0,0.254493 0.144213,0.407189 0.144212,0.152695 0.373256,0.152695 0.229043,0 0.373256,-0.152695 0.144212,-0.152696 0.144212,-0.407189 v -0.848309 h 0.882241 v 0.848309 q 0,0.627749 -0.390222,1.017971 -0.390222,0.390222 -1.017971,0.390222 z"
         style="font-family:Bebas;-inkscape-font-specification:'Bebas, Normal';text-align:center;text-anchor:middle"
         id="path4172" />
      <path
         d="m 35.283324,22.742501 -1.204599,3.452618 v 2.485545 h -0.899207 v -2.485545 l -1.204599,-3.452618 h 0.958589 l 0.695613,2.264985 0.71258,-2.264985 z"
         style="font-family:Bebas;-inkscape-font-specification:'Bebas, Normal';text-align:center;text-anchor:middle"
         id="path4174" />
      <path
         d="m 37.124159,28.765495 q -0.627748,0 -1.01797,-0.390222 -0.390223,-0.390222 -0.390223,-1.017971 v -3.291439 q 0,-0.627749 0.390223,-1.017971 0.390222,-0.390222 1.01797,-0.390222 0.627749,0 1.017971,0.390222 0.390222,0.390222 0.390222,1.017971 v 0.695614 h -0.882241 v -0.695614 q 0,-0.254493 -0.144212,-0.407188 -0.144213,-0.152696 -0.373256,-0.152696 -0.229044,0 -0.373256,0.152696 -0.144213,0.152695 -0.144213,0.407188 v 3.291439 q 0,0.254493 0.144213,0.407189 0.144212,0.152695 0.373256,0.152695 0.229043,0 0.373256,-0.152695 0.144212,-0.152696 0.144212,-0.407189 v -0.848309 h 0.882241 v 0.848309 q 0,0.627749 -0.390222,1.017971 -0.390222,0.390222 -1.017971,0.390222 z"
         style="font-family:Bebas;-inkscape-font-specification:'Bebas, Normal';text-align:center;text-anchor:middle"
         id="path4176" />
      <path
         d="m 39.355213,22.742501 h 0.899207 v 5.089854 h 1.603305 v 0.848309 h -2.502512 z"
         style="font-family:Bebas;-inkscape-font-specification:'Bebas, Normal';text-align:center;text-anchor:middle"
         id="path4178" />
      <path
         d="m 42.553346,22.742501 h 2.553411 v 0.848309 h -1.654203 v 1.654203 h 1.314879 v 0.848309 h -1.314879 v 1.739033 h 1.654203 v 0.848309 h -2.553411 z"
         style="font-family:Bebas;-inkscape-font-specification:'Bebas, Normal';text-align:center;text-anchor:middle"
         id="path4180" />
      <path
         d="m 45.861746,22.742501 h 1.408193 q 0.644714,0 1.026454,0.390222 0.381739,0.381739 0.381739,1.026454 v 3.104811 q 0,0.644715 -0.381739,1.034937 -0.38174,0.381739 -1.026454,0.381739 h -1.408193 z m 1.365777,5.089854 q 0.262976,0 0.407188,-0.144212 0.144213,-0.144213 0.144213,-0.407189 v -3.138743 q 0,-0.262976 -0.144213,-0.407188 -0.144212,-0.144213 -0.407188,-0.144213 h -0.46657 v 4.241545 z"
         style="font-family:Bebas;-inkscape-font-specification:'Bebas, Normal';text-align:center;text-anchor:middle"
         id="path4182" />
      <path
         d="m 20.80694,31.636666 h 1.408193 q 0.644715,0 1.026454,0.390222 0.381739,0.38174 0.381739,1.026454 v 3.104811 q 0,0.644715 -0.381739,1.034937 -0.381739,0.38174 -1.026454,0.38174 H 20.80694 Z m 1.365777,5.089855 q 0.262976,0 0.407189,-0.144213 0.144212,-0.144213 0.144212,-0.407188 v -3.138744 q 0,-0.262976 -0.144212,-0.407188 -0.144213,-0.144213 -0.407189,-0.144213 h -0.46657 v 4.241546 z"
         style="font-family:Bebas;-inkscape-font-specification:'Bebas, Normal';text-align:center;text-anchor:middle"
         id="path4184" />
      <path
         d="m 25.888308,37.65966 q -0.619265,0 -1.009487,-0.381739 -0.390222,-0.390222 -0.390222,-1.009487 v -4.631768 h 0.899207 v 4.631768 q 0,0.254492 0.13573,0.398705 0.144212,0.144212 0.364772,0.144212 0.220561,0 0.35629,-0.144212 0.144213,-0.144213 0.144213,-0.398705 v -4.631768 h 0.882241 v 4.631768 q 0,0.619265 -0.381739,1.009487 -0.381739,0.381739 -1.001005,0.381739 z"
         style="font-family:Bebas;-inkscape-font-specification:'Bebas, Normal';text-align:center;text-anchor:middle"
         id="path4186" />
      <path
         d="m 32.310015,31.636666 v 5.938164 h -0.899208 v -4.071884 l -0.839826,4.071884 h -0.627748 l -0.839826,-4.071884 v 4.071884 h -0.882242 v -5.938164 h 1.272464 l 0.780444,3.791942 0.746512,-3.791942 z"
         style="font-family:Bebas;-inkscape-font-specification:'Bebas, Normal';text-align:center;text-anchor:middle"
         id="path4188" />
      <path
         d="m 33.29405,31.636666 h 1.408193 q 0.644715,0 1.026454,0.390222 0.381739,0.38174 0.381739,1.026454 v 0.695614 q 0,0.644715 -0.381739,1.034937 -0.381739,0.381739 -1.026454,0.381739 H 34.193257 V 37.57483 H 33.29405 Z m 1.365777,2.680657 q 0.262976,0 0.407189,-0.144213 0.144212,-0.144212 0.144212,-0.407188 v -0.729546 q 0,-0.262976 -0.144212,-0.407188 -0.144213,-0.144213 -0.407189,-0.144213 h -0.46657 v 1.832348 z"
         style="font-family:Bebas;-inkscape-font-specification:'Bebas, Normal';text-align:center;text-anchor:middle"
         id="path4190" />
      <path
         d="m 38.112441,37.65966 q -0.424155,0 -0.754995,-0.186628 -0.330841,-0.186628 -0.517469,-0.517468 -0.178145,-0.330841 -0.178145,-0.754995 v -0.212077 l 0.865276,-0.09331 v 0.22056 q 0,0.322357 0.152695,0.508985 0.152696,0.186628 0.424155,0.186628 0.262976,0 0.415671,-0.152695 0.161179,-0.152696 0.161179,-0.415672 0,-0.288425 -0.169662,-0.551401 -0.161179,-0.262975 -0.653198,-0.729545 -0.661681,-0.627749 -0.90769,-1.04342 -0.237527,-0.415672 -0.237527,-0.907691 0,-0.670164 0.364773,-1.060386 0.364773,-0.398706 1.001005,-0.398706 0.636231,0 1.001004,0.398706 0.364773,0.398705 0.364773,1.068869 v 0.152696 l -0.865275,0.09331 v -0.169662 q 0,-0.339324 -0.127246,-0.517469 -0.127247,-0.178145 -0.364773,-0.178145 -0.237527,0 -0.364773,0.144213 -0.127247,0.144212 -0.127247,0.424154 0,0.279942 0.169662,0.542918 0.169662,0.254493 0.653198,0.738029 0.661681,0.661681 0.899208,1.06887 0.246009,0.398705 0.246009,0.882241 0,0.424154 -0.186628,0.754995 -0.178145,0.33084 -0.508985,0.517468 -0.330841,0.186628 -0.754995,0.186628 z"
         style="font-family:Bebas;-inkscape-font-specification:'Bebas, Normal';text-align:center;text-anchor:middle"
         id="path4192" />
      <path
         d="m 40.012659,31.636666 h 2.867285 v 0.848309 h -0.984039 v 5.089855 h -0.899207 v -5.089855 h -0.984039 z"
         style="font-family:Bebas;-inkscape-font-specification:'Bebas, Normal';text-align:center;text-anchor:middle"
         id="path4194" />
      <path
         d="m 43.575555,31.636666 h 2.553411 v 0.848309 h -1.654203 v 1.654203 h 1.314879 v 0.848309 h -1.314879 v 1.739034 h 1.654203 v 0.848309 h -2.553411 z"
         style="font-family:Bebas;-inkscape-font-specification:'Bebas, Normal';text-align:center;text-anchor:middle"
         id="path4196" />
      <path
         d="m 48.90293,37.57483 -0.653198,-2.451614 h -0.46657 v 2.451614 h -0.899207 v -5.938164 h 1.408193 q 0.644714,0 1.026454,0.390222 0.381739,0.38174 0.381739,1.026454 v 0.653198 q 0,0.407189 -0.161179,0.721063 -0.161179,0.313874 -0.458087,0.492019 l 0.754995,2.655208 z m -1.119768,-3.299923 h 0.46657 q 0.262976,0 0.407189,-0.144212 0.144212,-0.144213 0.144212,-0.407188 v -0.687131 q 0,-0.262976 -0.144212,-0.407188 -0.144213,-0.144213 -0.407189,-0.144213 h -0.46657 z"
         style="font-family:Bebas;-inkscape-font-specification:'Bebas, Normal';text-align:center;text-anchor:middle"
         id="path4198" />
      <path
         d="m 26.164002,40.530832 v 5.938163 h -0.899207 v -4.071884 l -0.839826,4.071884 H 23.79722 l -0.839826,-4.071884 v 4.071884 h -0.882241 v -5.938163 h 1.272463 l 0.780445,3.791941 0.746512,-3.791941 z"
         style="font-family:Bebas;-inkscape-font-specification:'Bebas, Normal';text-align:center;text-anchor:middle"
         id="path4200" />
      <path
         d="m 28.921003,45.154116 h -0.967072 l -0.195111,1.314879 h -0.899208 l 0.984039,-5.938163 h 1.204599 l 0.984038,5.938163 h -0.916174 z m -0.118763,-0.865275 -0.364773,-2.485546 -0.364773,2.485546 z"
         style="font-family:Bebas;-inkscape-font-specification:'Bebas, Normal';text-align:center;text-anchor:middle"
         id="path4202" />
      <path
         d="m 30.083195,40.530832 h 2.867285 v 0.848309 h -0.984039 v 5.089854 h -0.899207 v -5.089854 h -0.984039 z"
         style="font-family:Bebas;-inkscape-font-specification:'Bebas, Normal';text-align:center;text-anchor:middle"
         id="path4204" />
      <path
         d="m 33.646091,40.530832 h 2.55341 v 0.848309 h -1.654203 v 1.654202 h 1.314879 v 0.848309 h -1.314879 v 1.739034 h 1.654203 v 0.848309 h -2.55341 z"
         style="font-family:Bebas;-inkscape-font-specification:'Bebas, Normal';text-align:center;text-anchor:middle"
         id="path4206" />
      <path
         d="m 38.973466,46.468995 -0.653197,-2.451613 h -0.46657 v 2.451613 h -0.899208 v -5.938163 h 1.408193 q 0.644715,0 1.026454,0.390222 0.381739,0.381739 0.381739,1.026454 v 0.653198 q 0,0.407188 -0.161179,0.721062 -0.161178,0.313875 -0.458087,0.49202 l 0.754995,2.655207 z m -1.119767,-3.299922 h 0.46657 q 0.262975,0 0.407188,-0.144213 0.144212,-0.144212 0.144212,-0.407188 v -0.687131 q 0,-0.262975 -0.144212,-0.407188 -0.144213,-0.144212 -0.407188,-0.144212 h -0.46657 z"
         style="font-family:Bebas;-inkscape-font-specification:'Bebas, Normal';text-align:center;text-anchor:middle"
         id="path4208" />
      <path
         d="m 40.64463,40.530832 h 0.899207 v 5.938163 H 40.64463 Z"
         style="font-family:Bebas;-inkscape-font-specification:'Bebas, Normal';text-align:center;text-anchor:middle"
         id="path4210" />
      <path
         d="m 44.300843,45.154116 h -0.967072 l -0.195111,1.314879 h -0.899208 l 0.984039,-5.938163 h 1.204598 l 0.984039,5.938163 h -0.916174 z m -0.118763,-0.865275 -0.364773,-2.485546 -0.364773,2.485546 z"
         style="font-family:Bebas;-inkscape-font-specification:'Bebas, Normal';text-align:center;text-anchor:middle"
         id="path4212" />
      <path
         d="m 46.107749,40.530832 h 0.899208 v 5.089854 h 1.603304 v 0.848309 h -2.502512 z"
         style="font-family:Bebas;-inkscape-font-specification:'Bebas, Normal';text-align:center;text-anchor:middle"
         id="path4214" />
    </g>
  </g>
</svg>
